<?xml version="1.0" encoding="UTF-8"?>
<svg width="327px" height="262px" viewBox="0 0 327 262" version="1.1" xmlns="http://www.w3.org/2000/svg" xmlns:xlink="http://www.w3.org/1999/xlink">
    <!-- Generator: Sketch 53.2 (72643) - https://sketchapp.com -->
    <title>dev-illustration-3</title>
    <desc>Created with Sketch.</desc>
    <g id="wireframes-v3" stroke="none" stroke-width="1" fill="none" fill-rule="evenodd">
        <g id="Desktop-Copy-30" transform="translate(-615.000000, -205.000000)" fill-rule="nonzero">
            <g id="Introduction" transform="translate(80.000000, 80.000000)">
                <g id="hero" transform="translate(0.000000, 125.000000)">
                    <g id="dev-illustration-3" transform="translate(535.000000, 0.000000)">
                        <path d="M327,136.712793 L327,136.712793 L326.897812,120.523897 L295.969063,115.660427 L227.844063,74.8480849 C223.260907,72.4329101 217.790385,72.3822175 213.163125,74.7120437 L64.99125,159.941817 L0,183.578965 L0,200.584108 L0.204375,200.686139 C0.674616579,202.161077 1.71753796,203.386162 3.0996875,204.087167 L99.0878125,260.204137 C103.717982,262.568313 109.196735,262.59986 113.853906,260.289163 L323.849219,141.066109 C325.62881,140.313261 326.842639,138.636159 327,136.712793 Z" id="Path" fill="#E6E6E6"></path>
                        <path d="M62.7142857,234.336327 L35.2857143,218.326824 C32.8685168,216.865259 31.2788634,214.333156 31,211.500261 L31,211.500261 C31,209.109232 32.92,208.294896 35.2857143,209.663673 L62.7142857,225.673176 C65.1314832,227.134741 66.7211366,229.666844 67,232.499739 L67,232.499739 C67,234.890768 65.08,235.705104 62.7142857,234.336327 Z" id="Path" fill="#B3B3B3"></path>
                        <path d="M268.623077,168.551071 L285.376923,158.049531 C286.866908,157.05093 287.830553,155.428827 288,153.634111 L288,153.634111 C288,152.065699 286.815385,151.537213 285.376923,152.440754 L268.623077,162.925246 C267.153803,163.912473 266.193469,165.504035 266,167.272474 L266,167.272474 C266,168.977269 267.184615,169.454612 268.623077,168.551071 Z" id="Path" fill="#666666"></path>
                        <path d="M213.179748,57.721528 L3.01778573,178.539684 C1.20978964,179.174475 1.93902883e-15,180.87991 0,182.793845 C-1.93902883e-15,184.707779 1.20978964,186.413215 3.01778573,187.048005 L99.0509316,243.202923 C103.683273,245.568697 109.164595,245.600266 113.823951,243.288006 L323.900717,124.086431 C327.990134,121.772167 328.041252,117.926406 324.002953,115.57811 L227.867571,57.8406445 C223.279502,55.4292013 217.806427,55.3848154 213.179748,57.721528 Z" id="Path" fill="#000000"></path>
                        <path d="M212.456386,66.4576979 L28.6708088,171.953923 C27.0732968,172.500372 26,174.001289 26,175.688829 C26,177.376369 27.0732968,178.877286 28.6708088,179.423736 L112.638429,228.462465 C116.695574,230.512512 121.486284,230.512512 125.543429,228.462465 L309.294955,124.395544 C312.870219,122.370697 312.904269,119.018639 309.380081,116.908715 L225.293285,66.6618841 C221.299811,64.5204789 216.516019,64.444387 212.456386,66.4576979 Z" id="Path" fill="#29ABE2"></path>
                        <path d="M212.456386,66.4576979 L28.6708088,171.953923 C27.0732968,172.500372 26,174.001289 26,175.688829 C26,177.376369 27.0732968,178.877286 28.6708088,179.423736 L112.638429,228.462465 C116.695574,230.512512 121.486284,230.512512 125.543429,228.462465 L309.294955,124.395544 C312.870219,122.370697 312.904269,119.018639 309.380081,116.908715 L225.293285,66.6618841 C221.299811,64.5204789 216.516019,64.444387 212.456386,66.4576979 Z" id="Path" fill="#333333"></path>
                        <g id="Group" transform="translate(60.000000, 80.000000)" fill="#CCCCCC">
                            <polygon id="Path" points="137.032441 1.22033898 137.695748 0.847457627 143.631496 1.27118644 142.866142 1.69491525 138.103937 1.3559322 138.103937 1.3559322 138.699213 4.10169492 137.865827 4.57627119"></polygon>
                            <path d="M140.927244,6.25423729 C141.384797,6.01316724 141.932368,6.01316724 142.389921,6.25423729 C142.730079,6.45762712 142.747087,6.79661017 142.253858,7.08474576 C141.796305,7.32581581 141.248734,7.32581581 140.791181,7.08474576 C140.434016,6.88135593 140.434016,6.52542373 140.927244,6.25423729 Z M146.505827,3.38983051 L147.458268,2.83050847 L148.189606,3.25423729 L147.20315,3.79661017 L143.563465,5.77966102 L143.053228,5.49152542 L146.505827,3.38983051 Z" id="Shape"></path>
                            <path d="M146.624882,7.42372881 C148.006145,6.57301457 149.711256,6.42826591 151.217008,7.03389831 C151.65148,7.23143302 151.916268,7.67798879 151.880315,8.15254237 L151.880315,8.15254237 L152.764724,7.61016949 L154.703622,6.49152542 L155.434961,6.91525424 L148.087559,11.1525424 L147.492283,10.7966102 L148.087559,10.3728814 L148.087559,10.3728814 C147.337512,10.4493985 146.580509,10.326591 145.893543,10.0169492 C144.754016,9.37288136 144.941102,8.47457627 146.624882,7.42372881 Z M148.71685,9.96610169 L151.2,8.47457627 C151.247876,8.06468796 151.029222,7.66974739 150.655748,7.49152542 C149.578852,7.06759906 148.362869,7.18751524 147.390236,7.81355932 C146.199685,8.49152542 145.961575,9.18644068 146.760945,9.6440678 C147.368791,9.93498335 148.047408,10.0467156 148.71685,9.96610169 L148.71685,9.96610169 Z" id="Shape"></path>
                            <path d="M151.982362,10.5084746 C153.428509,9.62727864 155.219375,9.51930849 156.761575,10.220339 C157.901102,10.8813559 157.935118,12.0169492 156.268346,12.9830508 C154.823665,13.852831 153.040843,13.9543548 151.506142,13.2542373 C150.349606,12.5932203 150.315591,11.4745763 151.982362,10.5084746 Z M155.502992,12.5423729 C156.659528,11.8813559 156.88063,11.1186441 156.047244,10.6440678 C154.940613,10.1300292 153.642415,10.2464636 152.645669,10.9491525 C151.506142,11.6101695 151.302047,12.3728814 152.118425,12.8474576 C153.223349,13.3376549 154.504266,13.2221931 155.502992,12.5423729 L155.502992,12.5423729 Z" id="Shape"></path>
                            <path d="M157.509921,13.6949153 C159.075057,12.776537 161.005868,12.7316403 162.612283,13.5762712 C163.326614,13.9830508 163.513701,14.4576271 163.462677,14.8983051 L162.56126,15 C162.563496,14.573356 162.318341,14.1837818 161.931969,14 C160.786152,13.4265639 159.42549,13.4777323 158.326299,14.1355932 C157.169764,14.7966102 157.084724,15.6271186 158.088189,16.1864407 C158.692777,16.4914813 159.367543,16.6318158 160.044094,16.5932203 L159.822992,17.1186441 C158.956907,17.1524076 158.096467,16.9657476 157.322835,16.5762712 C155.911181,15.7966102 155.84315,14.6610169 157.509921,13.6949153 Z" id="Path"></path>
                            <path d="M163.445669,17.7457627 L165.826772,16.3728814 L164.585197,15.6610169 L165.231496,15.3050847 L166.541102,16 L168.24189,15.1186441 L168.854173,15.4745763 L167.255433,16.4067797 L169.381417,17.6271186 L168.684094,18.0169492 L166.55811,16.7966102 L164.177008,18.1694915 C163.275591,18.6949153 163.071496,19.1016949 163.92189,19.5932203 C164.315878,19.8080991 164.7402,19.9623849 165.180472,20.0508475 L164.704252,20.5084746 C164.108506,20.396016 163.534439,20.1900654 163.003465,19.8983051 C161.778898,19.1694915 162.204094,18.4576271 163.445669,17.7457627 Z" id="Path"></path>
                            <path d="M163.564724,22.4067797 L164.39811,22.1016949 C164.481753,22.2172495 164.592762,22.3104079 164.72126,22.3728814 C165.439058,22.6742317 166.248501,22.6742317 166.966299,22.3728814 L167.459528,22.2372881 L170.469921,18.1864407 L171.218268,18.6271186 L169.51748,20.8135593 L168.599055,21.9661017 L168.599055,21.9661017 L170.520945,21.3898305 L174.228661,20.3389831 L174.942992,20.7457627 L167.595591,22.7627119 C166.449289,23.2497519 165.153231,23.2497519 164.006929,22.7627119 C163.835743,22.6768531 163.684967,22.5554936 163.564724,22.4067797 L163.564724,22.4067797 Z" id="Path"></path>
                            <path d="M176.218583,21.559322 L176.830866,21.9152542 L176.252598,22.3220339 L176.252598,22.3220339 C177.030662,22.2665755 177.809896,22.4125423 178.514646,22.7457627 C179.688189,23.4067797 179.314016,24.3389831 177.749291,25.2372881 C176.352,26.1276694 174.607628,26.2857011 173.072126,25.6610169 C172.666816,25.4368795 172.42324,25.0038921 172.442835,24.5423729 L172.442835,24.5423729 L171.541417,25.1016949 L169.84063,26.0677966 L169.109291,25.6440678 L176.218583,21.559322 Z M177.017953,24.8305085 C178.106457,24.1864407 178.497638,23.559322 177.630236,23.1355932 C177.001264,22.8548742 176.30766,22.7494355 175.623307,22.8305085 L173.12315,24.2711864 C173.113767,24.6815018 173.337566,25.0619585 173.701417,25.2542373 C174.807998,25.6785435 176.054569,25.5192785 177.017953,24.8305085 L177.017953,24.8305085 Z" id="Shape"></path>
                            <path d="M178.854803,25.9491525 C180.328864,25.08698 182.133035,24.998349 183.685039,25.7118644 C184.943622,26.440678 184.72252,27.4067797 183.310866,28.220339 L182.766614,28.4915254 L179.092913,26.3728814 L179.75622,26 L182.987717,27.8644068 L182.56252,27.8644068 C183.753071,27.1864407 183.821102,26.559322 183.03874,26.1694915 C181.931243,25.6956562 180.661351,25.7905693 179.637165,26.4237288 C178.344567,27.1694915 178.412598,27.9661017 179.365039,28.5254237 C179.923194,28.8173905 180.53831,28.9850959 181.167874,29.0169492 L180.87874,29.4915254 C180.070909,29.4464698 179.284744,29.2143365 178.582677,28.8135593 C177.239055,28.0677966 177.188031,26.9152542 178.854803,25.9491525 Z" id="Path"></path>
                            <path d="M194.621102,29.4745763 L195.369449,29.8983051 L193.36252,31.0508475 L192.120945,31.7118644 L192.120945,31.7118644 C193.006281,31.58567 193.909362,31.7150765 194.72315,32.0847458 C195.743622,32.6779661 195.52252,33.3559322 194.195906,34.1016949 L191.083465,35.8983051 L190.335118,35.4745763 L193.345512,33.779661 C194.297953,33.2372881 194.451024,32.8135593 193.736693,32.4067797 C193.02794,32.131728 192.255764,32.0612385 191.508661,32.2033898 L188.107087,34.2033898 L187.35874,33.779661 L194.621102,29.4745763 Z" id="Path"></path>
                            <path d="M195.590551,36.2372881 L197.971654,34.8644068 L196.730079,34.1694915 L197.376378,33.7966102 L198.685984,34.4915254 L200.386772,33.6271186 L200.999055,33.9661017 L199.400315,34.8983051 L201.526299,36.1186441 L200.828976,36.5254237 L198.702992,35.3050847 L196.32189,36.6610169 C195.420472,37.1864407 195.216378,37.5932203 196.066772,38.0847458 C196.457336,38.3070671 196.882892,38.4618014 197.325354,38.5423729 L196.849134,39 C196.253387,38.8875414 195.679321,38.6815909 195.148346,38.3898305 C193.889764,37.6610169 194.348976,36.9491525 195.590551,36.2372881 Z" id="Path"></path>
                            <path d="M202.699843,36.7966102 L203.27811,37.1355932 L202.682835,37.559322 L202.682835,37.559322 C203.245888,37.3961069 203.848877,37.4381704 204.383622,37.6779661 C204.825827,37.9322034 204.791811,38.2542373 204.383622,38.6440678 C204.998494,38.4469195 205.664782,38.483137 206.254488,38.7457627 C206.866772,39.0847458 206.679685,39.6101695 205.67622,40.1864407 L202.087559,42.2542373 L201.35622,41.8305085 L204.893858,39.7966102 C205.472126,39.4745763 205.625197,39.2033898 205.302047,39.0338983 C204.978898,38.8644068 204.570709,38.9152542 203.83937,39.0338983 L200.199685,41.1186441 L199.51937,40.7288136 L203.057008,38.7118644 C203.618268,38.3728814 203.805354,38.1355932 203.482205,37.9491525 C203.159055,37.7627119 202.71685,37.8135593 201.985512,37.9491525 L198.362835,40.0338983 L197.631496,39.6101695 L202.699843,36.7966102 Z" id="Path"></path>
                            <path d="M206.390551,42.7627119 L211.373858,39.8983051 L209.826142,39.0169492 L210.523465,38.6271186 L212.80252,39.9322034 L207.070866,43.220339 C206.356535,43.6440678 206.373543,44.0169492 206.900787,44.3050847 C207.224687,44.4762089 207.575574,44.5908567 207.938268,44.6440678 L207.479055,45.1186441 C206.970798,45.0453551 206.480606,44.8786906 206.033386,44.6271186 C205.097953,44.0677966 205.2,43.440678 206.390551,42.7627119 Z" id="Path"></path>
                            <polygon id="Path" points="210.149291 45.3389831 214.911496 45.6779661 214.911496 45.6779661 214.299213 42.9152542 215.115591 42.440678 215.846929 45.8305085 215.183622 46.220339 209.332913 45.7627119"></polygon>
                            <polygon id="Path" points="124.667717 8.3559322 125.331024 7.96610169 131.249764 8.38983051 130.433386 8.86440678 125.671181 8.52542373 125.671181 8.52542373 126.266457 11.2711864 125.450079 11.7457627"></polygon>
                            <path d="M134.039055,8.84745763 L134.770394,9.27118644 L132.763465,10.4237288 L131.538898,11.0847458 L131.538898,11.0847458 C132.417077,10.9620838 133.312185,11.085323 134.124094,11.440678 C135.144567,12.0338983 134.923465,12.7118644 133.59685,13.4745763 L130.518425,15.2542373 L129.787087,14.8135593 L132.780472,13.1186441 C133.732913,12.559322 133.885984,12.1525424 133.188661,11.7457627 C132.478349,11.4336998 131.690928,11.3392995 130.926614,11.4745763 L127.422992,13.559322 L126.691654,13.1355932 L134.039055,8.84745763 Z" id="Path"></path>
                            <path d="M135.008504,15.6101695 L137.372598,14.2542373 L136.148031,13.5423729 L136.777323,13.1694915 L138.086929,13.8644068 L139.787717,13 L140.4,13.3559322 L138.699213,14.2711864 L140.825197,15.4915254 L140.144882,15.8983051 L138.018898,14.6779661 L135.620787,16.0508475 C134.736378,16.559322 134.532283,16.9830508 135.365669,17.4576271 C135.757983,17.6798601 136.182581,17.8399639 136.624252,17.9322034 L136.165039,18.3728814 C135.570415,18.2651947 134.996479,18.0650103 134.464252,17.779661 C133.341732,17.0338983 133.766929,16.3220339 135.008504,15.6101695 Z" id="Path"></path>
                            <path d="M142.100787,16.1694915 L142.696063,16.5084746 L142.100787,16.9322034 L142.100787,16.9322034 C142.663841,16.7689883 143.26683,16.8110518 143.801575,17.0508475 C144.226772,17.3050847 144.209764,17.6271186 143.801575,18.0338983 C144.408365,17.7967299 145.082659,17.7967299 145.689449,18.0338983 C146.301732,18.3728814 146.097638,18.8983051 145.111181,19.4745763 L141.52252,21.5423729 L140.791181,21.1186441 L144.311811,19.0847458 C144.890079,18.7627119 145.04315,18.5084746 144.72,18.3220339 C144.39685,18.1355932 144.005669,18.2033898 143.257323,18.3220339 L139.617638,20.4237288 L138.954331,20.0338983 L142.474961,18 C143.053228,17.6610169 143.223307,17.4237288 142.900157,17.2372881 C142.422057,17.0651228 141.898573,17.0651228 141.420472,17.2372881 L137.76378,19.4745763 L137.032441,19.0508475 L142.100787,16.1694915 Z" id="Path"></path>
                            <path d="M145.808504,22.1355932 L150.774803,19.2711864 L149.244094,18.3898305 L149.941417,18 L152.203465,19.3050847 L146.488819,22.5932203 C145.75748,23.0169492 145.791496,23.3898305 146.301732,23.6779661 C146.62248,23.8563665 146.974736,23.9714617 147.339213,24.0169492 L146.897008,24.4915254 C146.38405,24.4154523 145.888769,24.2490157 145.434331,24 C144.566929,23.4745763 144.566929,22.8135593 145.808504,22.1355932 Z" id="Path"></path>
                            <path d="M154.414488,22.1694915 L155.537008,21.5084746 L156.472441,22.0338983 L155.315906,22.6779661 L152.764724,23.8813559 L152.271496,23.5932203 L154.414488,22.1694915 Z M156.455433,23.3559322 L157.577953,22.6949153 L158.564409,23.2542373 L157.424882,23.9152542 L154.873701,25.1016949 L154.363465,24.8305085 L156.455433,23.3559322 Z" id="Shape"></path>
                            <path d="M161.880945,31.3898305 L166.847244,28.5254237 L165.316535,27.6440678 L166.013858,27.2372881 L168.275906,28.559322 L162.56126,31.8474576 C161.829921,32.2711864 161.863937,32.6440678 162.374173,32.9322034 C162.698073,33.1033276 163.04896,33.2179753 163.411654,33.2711864 L162.969449,33.7457627 C162.45649,33.6696895 161.96121,33.503253 161.506772,33.2542373 C160.588346,32.7118644 160.690394,32.0677966 161.880945,31.3898305 Z" id="Path"></path>
                            <path d="M165.367559,33.8983051 C166.490079,33.2542373 167.952756,33.4745763 170.469921,34.6271186 C171.11622,34.220339 171.405354,33.7288136 170.571969,33.2542373 C169.909939,32.9415619 169.194178,32.7574871 168.462992,32.7118644 L168.735118,32.220339 C169.662693,32.2728383 170.57046,32.5090801 171.405354,32.9152542 C172.595906,33.5932203 172.357795,34.4067797 171.099213,35.1186441 L168.020787,36.8135593 L167.408504,36.4745763 L168.037795,36.0338983 L168.037795,36.0338983 C167.176813,36.0520442 166.322634,35.8783238 165.537638,35.5254237 C164.619213,35.0338983 164.48315,34.3559322 165.367559,33.8983051 Z M168.531024,35.5932203 L169.823622,34.8474576 C167.816693,33.8644068 166.830236,33.7966102 166.166929,34.1694915 C165.503622,34.5423729 165.809764,34.8813559 166.32,35.1694915 C167.01181,35.486743 167.770482,35.6321378 168.531024,35.5932203 L168.531024,35.5932203 Z" id="Shape"></path>
                            <path d="M174.551811,34.8474576 L175.164094,35.2033898 L174.381732,35.7118644 L174.381732,35.7118644 C175.267068,35.58567 176.170149,35.7150765 176.983937,36.0847458 C178.021417,36.6779661 177.783307,37.3559322 176.456693,38.1186441 L173.344252,39.8135593 L172.612913,39.3898305 L175.606299,37.6949153 C176.55874,37.1525424 176.711811,36.7288136 176.014488,36.3389831 C175.304176,36.0269201 174.516755,35.9325199 173.752441,36.0677966 L170.248819,38.0677966 L169.51748,37.6440678 L174.551811,34.8474576 Z" id="Path"></path>
                            <path d="M173.803465,41.2372881 C174.371452,40.9745809 175.006617,40.8917621 175.623307,41 L175.623307,41 C175.52126,40.779661 175.623307,40.5084746 175.99748,40.2711864 C176.447431,40.0577141 176.947056,39.9698495 177.44315,40.0169492 L177.44315,40.0169492 C177.44315,39.6949153 177.613228,39.3050847 178.208504,38.9661017 C179.30272,38.3815314 180.61791,38.3815314 181.712126,38.9661017 C181.913667,39.072347 182.088186,39.2230746 182.222362,39.4067797 L184.025197,40.440678 L183.327874,40.8305085 L182.205354,40.1864407 C182.107871,40.5286597 181.874431,40.816392 181.559055,40.9830508 C180.498788,41.5587833 179.217747,41.5587833 178.15748,40.9830508 C177.933374,40.8579554 177.745807,40.6768764 177.613228,40.4576271 C177.300376,40.408096 176.979807,40.4554238 176.694803,40.5932203 C176.303622,40.8135593 176.439685,41.1186441 177.017953,41.440678 L177.987402,42 C179.109921,42.6440678 179.314016,43.1525424 178.463622,43.6949153 C177.096492,44.2536174 175.542072,44.1145187 174.296693,43.3220339 C173.140157,42.4576271 172.919055,41.7457627 173.803465,41.2372881 Z M177.715276,43.220339 C178.191496,42.9491525 177.987402,42.6779661 177.324094,42.3050847 L176.473701,41.8135593 C176.26364,41.6974084 176.069314,41.5550151 175.895433,41.3898305 C175.430069,41.292447 174.94542,41.3520736 174.517795,41.559322 C173.990551,41.8644068 174.143622,42.3220339 175.079055,42.8644068 C175.852734,43.3895809 176.829263,43.521428 177.715276,43.220339 L177.715276,43.220339 Z M181.014803,40.4745763 C181.712126,40.0847458 181.746142,39.5423729 181.184882,39.2372881 C180.487651,38.9070305 179.671047,38.9451767 179.007874,39.3389831 C178.293543,39.7457627 178.276535,40.2711864 178.820787,40.5932203 C179.525499,40.9244497 180.350195,40.8798532 181.014803,40.4745763 Z" id="Shape"></path>
                            <path d="M182.817638,42.3728814 L186.644409,44.5762712 L186.015118,44.9491525 L182.171339,42.7288136 L182.817638,42.3728814 Z M185.011654,41.1016949 L188.855433,43.3050847 L188.209134,43.6779661 L184.382362,41.4576271 L185.011654,41.1016949 Z" id="Shape"></path>
                            <path d="M191.91685,43.7457627 L193.03937,43.0847458 L194.025827,43.6610169 L192.869291,44.3050847 L190.31811,45.5084746 L189.824882,45.220339 L191.91685,43.7457627 Z M193.957795,44.9322034 L195.080315,44.2711864 L196.066772,44.8305085 L194.927244,45.4915254 L192.376063,46.6779661 L191.882835,46.4067797 L193.957795,44.9322034 Z" id="Shape"></path>
                            <path d="M193.260472,48.4915254 C194.732629,47.6027217 196.555235,47.5134993 198.107717,48.2542373 C199.349291,48.9661017 199.145197,49.9491525 197.733543,50.7457627 C197.551813,50.8467764 197.364418,50.9373205 197.172283,51.0169492 L193.515591,48.9152542 L194.178898,48.5254237 L197.410394,50.3898305 L196.985197,50.3898305 C198.15874,49.6949153 198.24378,49.0677966 197.444409,48.6949153 C196.336912,48.2210799 195.06702,48.315993 194.042835,48.9491525 C192.750236,49.7118644 192.818268,50.5084746 193.787717,51.0677966 C194.340259,51.3561408 194.950296,51.5182559 195.573543,51.5423729 L195.284409,52.0169492 C194.494793,51.9802048 193.722771,51.7719579 193.022362,51.4067797 C191.661732,50.5932203 191.593701,49.440678 193.260472,48.4915254 Z" id="Path"></path>
                            <path d="M201.339213,50.2542373 L201.951496,50.6101695 L201.169134,51.1355932 L201.169134,51.1355932 C202.054447,51.0177352 202.955215,51.1468102 203.771339,51.5084746 C204.808819,52.1016949 204.570709,52.779661 203.244094,53.5423729 L200.131654,55.3389831 L199.400315,54.9152542 L202.393701,53.220339 C203.346142,52.6610169 203.499213,52.2542373 202.80189,51.8474576 C202.089231,51.5440223 201.304382,51.4499304 200.539843,51.5762712 L197.03622,53.5932203 L196.304882,53.1694915 L201.339213,50.2542373 Z" id="Path"></path>
                            <path d="M207.989291,53 L209.111811,52.3389831 L210.08126,52.8983051 L208.941732,53.559322 L206.390551,54.7457627 L205.897323,54.4576271 L207.989291,53 Z M210.030236,54.1694915 L211.152756,53.5254237 L212.139213,54.0847458 L210.999685,54.7288136 L208.448504,55.9322034 L207.938268,55.6440678 L210.030236,54.1694915 Z" id="Shape"></path>
                            <polygon id="Path" points="208.499528 58.6271186 213.261732 58.9661017 213.261732 58.9661017 212.666457 56.2372881 213.499843 55.7627119 214.214173 59.1525424 213.567874 59.5254237 207.632126 59.1186441"></polygon>
                            <polygon id="Path" points="99.9212598 22.5932203 100.584567 22.2033898 106.503307 22.6271186 105.686929 23.1016949 100.924724 22.7627119 100.924724 22.7627119 101.52 25.5084746 100.703622 25.9830508"></polygon>
                            <path d="M109.292598,23.0847458 L110.023937,23.5084746 L108.034016,24.6610169 L106.792441,25.3220339 L106.792441,25.3220339 C107.670621,25.1993719 108.565729,25.3226112 109.377638,25.6779661 C110.415118,26.2711864 110.177008,26.9491525 108.867402,27.7118644 L105.737953,29.5084746 L105.006614,29.0677966 L108,27.3728814 C108.952441,26.8305085 109.105512,26.4237288 108.408189,26.0169492 C107.698153,25.7038832 106.910426,25.6094464 106.146142,25.7457627 L102.64252,27.7627119 L101.911181,27.3220339 L109.292598,23.0847458 Z" id="Path"></path>
                            <path d="M109.59874,28.8135593 C111.072801,27.9513867 112.876972,27.8627558 114.428976,28.5762712 C115.670551,29.3050847 115.466457,30.2711864 114.054803,31.0677966 C113.874788,31.1769455 113.687231,31.2732323 113.493543,31.3559322 L109.83685,29.2372881 L110.551181,28.8135593 L113.782677,30.6610169 L113.35748,30.6610169 C114.531024,29.9830508 114.616063,29.3559322 113.816693,28.9661017 C112.711766,28.4772004 111.434507,28.5726641 110.415118,29.220339 C109.105512,29.9661017 109.173543,30.7627119 110.142992,31.3220339 C110.700334,31.6160522 111.315914,31.7838843 111.945827,31.8135593 L111.656693,32.2881356 C110.860073,32.2480498 110.082031,32.0339591 109.377638,31.6610169 C107.982992,30.9322034 107.914961,29.779661 109.59874,28.8135593 Z" id="Path"></path>
                            <path d="M113.833701,32.6610169 C114.95622,32.0169492 116.418898,32.220339 118.936063,33.3898305 C119.582362,32.9830508 119.888504,32.4915254 119.03811,32 C118.375759,31.6907906 117.659576,31.5123632 116.929134,31.4745763 L117.218268,30.9830508 C118.140054,31.0377728 119.041827,31.2739588 119.871496,31.6779661 C121.062047,32.3559322 120.823937,33.1525424 119.565354,33.8813559 L116.503937,35.5762712 L115.891654,35.220339 L116.503937,34.7966102 L116.503937,34.7966102 C115.642955,34.814756 114.788776,34.6410356 114.00378,34.2881356 C113.085354,33.8983051 112.949291,33.1694915 113.833701,32.6610169 Z M116.997165,34.4745763 L118.289764,33.7118644 C116.282835,32.7457627 115.296378,32.6610169 114.633071,33.0508475 C113.969764,33.440678 114.292913,33.7627119 114.786142,34.0508475 C115.48051,34.3600809 116.237232,34.505102 116.997165,34.4745763 L116.997165,34.4745763 Z" id="Shape"></path>
                            <path d="M120.211654,34.9491525 C121.597283,34.0927883 123.310156,33.9479173 124.820787,34.559322 C125.251836,34.76063 125.51508,35.2045808 125.484094,35.6779661 L125.484094,35.6779661 L126.368504,35.1186441 L128.290394,34.0169492 L129.03874,34.440678 L121.691339,38.6610169 L121.079055,38.3220339 L121.674331,37.8983051 L121.674331,37.8983051 C120.919036,37.9662104 120.158731,37.8438159 119.463307,37.5423729 C118.340787,36.8983051 118.544882,35.9152542 120.211654,34.9491525 Z M122.303622,37.4915254 L124.80378,36.0508475 C124.848834,35.6368676 124.622646,35.2406984 124.24252,35.0677966 C123.168324,34.6388514 121.952483,34.7524429 120.977008,35.3728814 C119.786457,36.0677966 119.548346,36.7627119 120.347717,37.220339 C120.963327,37.484456 121.639045,37.5781443 122.303622,37.4915254 L122.303622,37.4915254 Z" id="Shape"></path>
                            <polygon id="Path" points="124.820787 38.9830508 129.582992 39.3220339 129.582992 39.3220339 128.987717 36.5762712 129.821102 36.1016949 130.552441 39.4915254 129.889134 39.8644068 123.953386 39.440678"></polygon>
                            <path d="M86.0938583,31.559322 C86.5792765,31.2672542 87.1788285,31.2354732 87.6925984,31.4745763 C88.0837795,31.6949153 88.0497638,32.1016949 87.5395276,32.3898305 C87.039827,32.6549912 86.440488,32.6549912 85.9407874,32.3898305 C85.5325984,32.2033898 85.5666142,31.8644068 86.0938583,31.559322 Z" id="Path"></path>
                            <path d="M91.4513386,34.6440678 C91.9510392,34.3789072 92.5503782,34.3789072 93.0500787,34.6440678 C93.4412598,34.8644068 93.4072441,35.2542373 92.8970079,35.559322 C92.3973073,35.8244827 91.7979683,35.8244827 91.2982677,35.559322 C90.8900787,35.3389831 90.9240945,34.9491525 91.4513386,34.6440678 Z" id="Path"></path>
                            <path d="M96.8088189,37.7288136 C97.2942371,37.4367457 97.8937892,37.4049648 98.4075591,37.6440678 C98.7987402,37.8644068 98.7647244,38.2542373 98.2544882,38.559322 C97.7547876,38.8244827 97.1554486,38.8244827 96.655748,38.559322 C96.2475591,38.4067797 96.2815748,38.0338983 96.8088189,37.7288136 Z" id="Path"></path>
                            <polygon id="Path" points="75.1748031 36.8135593 75.8381102 36.440678 81.7568504 36.8644068 80.9404724 37.3389831 76.1782677 37 76.1782677 37 76.7565354 39.7457627 75.9401575 40.220339"></polygon>
                            <polygon id="Path" points="87.5055118 38.9830508 88.1688189 39.3559322 76.2633071 42.8474576 75.6 42.4576271"></polygon>
                            <path d="M89.903622,40.4067797 L90.6349606,40.8305085 L88.6450394,41.9830508 L87.4034646,42.6440678 L87.4034646,42.6440678 C88.281542,42.5039899 89.1815893,42.6279092 89.9886614,43 C91.0261417,43.5932203 90.7880315,44.2711864 89.4614173,45.0338983 L86.3489764,46.7288136 L85.6176378,46.3050847 L88.6110236,44.6101695 C89.5634646,44.0677966 89.7165354,43.6440678 89.0192126,43.2372881 C88.2930816,42.9590897 87.5020935,42.894382 86.7401575,43.0508475 L83.3385827,45.0508475 L82.6072441,44.6271186 L89.903622,40.4067797 Z" id="Path"></path>
                            <path d="M90.1417323,46.1355932 C91.6157931,45.2734206 93.4199638,45.1847897 94.9719685,45.8983051 C96.2135433,46.6271186 96.0094488,47.5932203 94.5977953,48.3898305 C94.425341,48.4970842 94.2431161,48.5878821 94.0535433,48.6610169 L90.3798425,46.559322 L91.0431496,46.1864407 L94.2746457,48.0338983 L93.8494488,48.0338983 C95.04,47.3559322 95.1080315,46.7288136 94.3256693,46.3389831 C93.2212862,45.8469639 91.9424784,45.9425434 90.9240945,46.5932203 C89.6144882,47.3389831 89.6825197,48.1355932 90.6519685,48.6949153 C91.213095,48.9792905 91.8265588,49.1465455 92.4548031,49.1864407 L92.1656693,49.6610169 C91.3690493,49.6209312 90.5910076,49.4068405 89.8866142,49.0338983 C88.5940157,48.2542373 88.5259843,47.1016949 90.1417323,46.1355932 Z" id="Path"></path>
                            <path d="M94.4617323,49.9830508 C95.584252,49.3389831 97.0299213,49.5423729 99.4790551,50.7118644 C100.125354,50.3050847 100.431496,49.8135593 99.5811024,49.3220339 C98.9180405,49.0148201 98.2022526,48.836491 97.472126,48.7966102 L97.7612598,48.2881356 C98.6840708,48.3490472 99.585728,48.5909629 100.414488,49 C101.605039,49.6779661 101.366929,50.4745763 100.108346,51.2033898 L97.0469291,52.8983051 L96.4346457,52.5423729 L97.0469291,52.1186441 L97.0469291,52.1186441 C96.1838608,52.139866 95.327744,51.9599477 94.5467717,51.5932203 C93.696378,51.1864407 93.5433071,50.4915254 94.4617323,49.9830508 Z M97.608189,51.779661 L98.9177953,51.0338983 C96.8938583,50.0677966 95.9074016,49.9830508 95.2440945,50.3559322 C94.5807874,50.7288136 94.8869291,51.0847458 95.3971654,51.3728814 C96.0932773,51.6751341 96.8496674,51.8142933 97.608189,51.779661 Z" id="Shape"></path>
                            <path d="M100.822677,52.2711864 C102.212663,51.409146 103.933316,51.2641519 105.448819,51.8813559 C105.879868,52.0826639 106.143111,52.5266147 106.112126,53 L106.112126,53 L106.996535,52.440678 L108.850394,51.3559322 L109.59874,51.779661 L102.31937,55.9322034 L101.707087,55.5932203 L102.31937,55.1694915 L102.31937,55.1694915 C101.564076,55.2373969 100.80377,55.1150023 100.108346,54.8135593 C98.951811,54.2372881 99.1559055,53.2372881 100.822677,52.2711864 Z M102.914646,54.7966102 L105.448819,53.3728814 C105.499464,52.957764 105.271523,52.5585238 104.887559,52.3898305 C103.819081,51.9610006 102.608328,52.0747091 101.639055,52.6949153 C100.431496,53.3898305 100.210394,54.0847458 100.992756,54.5423729 C101.59808,54.8003851 102.262739,54.8883095 102.914646,54.7966102 L102.914646,54.7966102 Z" id="Shape"></path>
                            <polygon id="Path" points="105.448819 56.2711864 110.211024 56.6101695 110.211024 56.6101695 109.615748 53.8644068 110.449134 53.3898305 111.180472 56.779661 110.517165 57.1694915 104.581417 56.7457627"></polygon>
                            <polygon id="Path" points="62.7930709 43.9491525 63.456378 43.559322 69.392126 44.0677966 68.5587402 44.5423729 63.7965354 44.2033898 63.7965354 44.2033898 64.391811 46.9491525 63.5584252 47.4237288"></polygon>
                            <path d="M66.0755906,48.7457627 L66.0755906,48.7457627 L65.4462992,49.0169492 L64.8510236,48.6779661 L72.1984252,44.4576271 L72.9467717,44.8813559 L70.9398425,46.0338983 L69.936378,46.5762712 L69.936378,46.5762712 C70.6950176,46.508921 71.4580023,46.6434445 72.1474016,46.9661017 C73.3209449,47.6440678 72.9467717,48.6610169 71.3990551,49.4745763 C70.0089171,50.3648019 68.2722453,50.5290266 66.7388976,49.9152542 C66.3092832,49.6862312 66.0509044,49.2306778 66.0755906,48.7457627 Z M70.6337008,49.0338983 C71.7392126,48.4067797 72.1133858,47.779661 71.2459843,47.3389831 C70.6170116,47.058264 69.9234076,46.9528253 69.2390551,47.0338983 L66.7388976,48.4745763 C66.7302913,48.8936137 66.9610248,49.2812216 67.3341732,49.4745763 C68.4396662,49.8786892 69.6739961,49.7138347 70.6337008,49.0338983 Z" id="Shape"></path>
                            <path d="M72.3855118,50.1355932 C73.8316582,49.2543973 75.6225245,49.1464271 77.1647244,49.8474576 C78.304252,50.5084746 78.3382677,51.6440678 76.6714961,52.6101695 C75.2268143,53.4799497 73.4439923,53.5814735 71.9092913,52.8813559 C70.7697638,52.220339 70.7187402,51.1016949 72.3855118,50.1355932 Z M75.9061417,52.1694915 C77.0626772,51.5084746 77.2837795,50.7457627 76.4503937,50.2711864 C75.3437628,49.7571478 74.045565,49.8735822 73.0488189,50.5762712 C71.9092913,51.2372881 71.7051969,52 72.5385827,52.4745763 C73.6359189,52.9754727 74.9174331,52.8593736 75.9061417,52.1694915 Z" id="Shape"></path>
                            <path d="M77.7429921,53.220339 C79.1286216,52.3639747 80.8414941,52.2191037 82.352126,52.8305085 C82.7798704,53.0354219 83.041655,53.4769125 83.0154331,53.9491525 L83.0154331,53.9491525 L83.8828346,53.3898305 L85.8217323,52.2881356 L86.5530709,52.7118644 L79.239685,56.9491525 L78.6274016,56.6101695 L79.2226772,56.1864407 L79.2226772,56.1864407 C78.4726792,56.2613437 77.7160948,56.1386041 77.0286614,55.8305085 C75.872126,55.1694915 76.0762205,54.2372881 77.7429921,53.220339 Z M79.8349606,55.7627119 L82.3351181,54.3220339 C82.3698132,53.9102617 82.146788,53.5196315 81.7738583,53.3389831 C80.6982044,52.9063127 79.4780414,53.0266411 78.5083465,53.6610169 C77.3177953,54.3389831 77.079685,55.0338983 77.8790551,55.4915254 C78.4919761,55.765104 79.1703787,55.8591646 79.8349606,55.7627119 Z" id="Shape"></path>
                            <path d="M78.6103937,58.9661017 L79.4437795,58.6610169 C79.536671,58.7676276 79.6457015,58.8591258 79.7669291,58.9322034 C80.4865855,59.2242454 81.2923121,59.2242454 82.0119685,58.9322034 L82.5051969,58.779661 L85.5155906,54.7288136 L86.263937,55.1694915 L84.5631496,57.3559322 L83.6447244,58.5084746 L83.6447244,58.5084746 L85.5666142,57.9491525 L89.2743307,56.8983051 L89.9886614,57.3050847 L82.6582677,59.4067797 C81.5100097,59.8841815 80.2178644,59.8841815 79.0696063,59.4067797 C78.8878115,59.2928477 78.7314968,59.1428421 78.6103937,58.9661017 Z" id="Path"></path>
                            <polygon id="Path" points="87.6925984 60.3050847 92.4548031 60.6440678 92.4548031 60.6440678 91.8425197 57.8813559 92.6588976 57.4067797 93.3902362 60.7966102 92.7269291 61.1864407 86.808189 60.7627119"></polygon>
                            <polygon id="Path" points="50.4283465 51.0508475 51.023622 50.6779661 56.9423622 51.1016949 56.1259843 51.5762712 51.3637795 51.2372881 51.3637795 51.2372881 51.9420472 53.9830508 51.1256693 54.4576271"></polygon>
                            <path d="M54.6462992,54.2372881 C56.0347267,53.3864947 57.7474789,53.2479321 59.2554331,53.8644068 C59.6907635,54.0518504 59.9576371,54.495104 59.9187402,54.9661017 L59.9187402,54.9661017 L60.8031496,54.4237288 L62.7250394,53.3050847 L63.4733858,53.7288136 L56.1259843,57.9152542 L55.5307087,57.6271186 L56.1429921,57.220339 L56.1429921,57.220339 C55.3914337,57.2915628 54.634364,57.1628959 53.9489764,56.8474576 C52.7244094,56.1186441 52.9795276,55.1355932 54.6462992,54.2372881 Z M56.7552756,56.779661 L59.2384252,55.3389831 C59.28109,54.9301323 59.0639881,54.5379937 58.6941732,54.3559322 C57.6172771,53.9320058 56.4012943,54.051922 55.4286614,54.6779661 C54.2211024,55.3559322 54,56.0508475 54.7823622,56.5084746 C55.4051229,56.7700791 56.0919653,56.8408865 56.7552756,56.7118644 L56.7552756,56.779661 Z" id="Shape"></path>
                            <path d="M64.119685,57.5254237 L62.095748,56.3559322 L62.7930709,55.9661017 L65.5483465,57.5423729 L60.4459843,60.440678 L59.6976378,60 L64.119685,57.5254237 Z M66.2286614,55.9322034 C66.6154287,55.7211629 67.0834689,55.7211629 67.4702362,55.9322034 C67.8103937,56.1186441 67.7933858,56.4237288 67.4702362,56.6440678 C67.0774083,56.8550089 66.6044814,56.8550089 66.2116535,56.6440678 C65.8034646,56.4915254 65.8204724,56.2033898 66.2286614,55.9322034 Z" id="Shape"></path>
                            <path d="M67.7933858,58.8474576 L68.5587402,59.2711864 L66.7218898,61.4915254 L65.7184252,62.6271186 L65.7184252,62.6271186 C66.3477165,62.4237288 66.9940157,62.220339 67.6743307,62.0338983 L71.552126,61.0169492 L72.2664567,61.4237288 L65.4633071,63.2711864 L64.6299213,62.7118644 L67.7933858,58.8474576 Z" id="Path"></path>
                            <path d="M80.1751181,66.7627119 L78.2362205,65.6101695 L78.9335433,65.220339 L81.6888189,66.7966102 L76.5354331,69.6779661 L75.7870866,69.2542373 L80.1751181,66.7627119 Z M82.2840945,65.220339 C82.6769224,65.0093979 83.1498493,65.0093979 83.5426772,65.220339 C83.8828346,65.4237288 83.8658268,65.7118644 83.5426772,65.9491525 C83.1498493,66.1600936 82.6769224,66.1600936 82.2840945,65.9491525 C81.8759055,65.7457627 81.8929134,65.440678 82.2840945,65.220339 Z" id="Shape"></path>
                            <path d="M81.4337008,69.5932203 C82.8137902,68.7203345 84.5348696,68.5747693 86.0428346,69.2033898 C86.4773068,69.4009245 86.7420949,69.8474803 86.7061417,70.3220339 L86.7061417,70.3220339 L87.5905512,69.779661 L89.5124409,68.6779661 L90.2607874,69.1016949 L82.9133858,73.3220339 L82.3011024,72.9661017 L82.9133858,72.559322 L82.9133858,72.559322 C82.1617671,72.6321916 81.4042672,72.5034516 80.7193701,72.1864407 C79.5628346,71.5254237 79.7669291,70.5423729 81.4337008,69.5932203 Z M83.5256693,72.1186441 L86.0258268,70.6949153 C86.073159,70.2761536 85.8473954,69.8739093 85.4645669,69.6949153 C84.3933763,69.2710975 83.1824785,69.3911374 82.216063,70.0169492 C81.0085039,70.7118644 80.7874016,71.3898305 81.5697638,71.8474576 C82.180479,72.1286066 82.8611356,72.2229797 83.5256693,72.1186441 Z" id="Shape"></path>
                            <path d="M87.1483465,72.7288136 L90.9751181,74.9322034 L90.3458268,75.3050847 L86.5020472,73.1016949 L87.1483465,72.7288136 Z M89.3593701,71.4576271 L93.1861417,73.6610169 L92.5568504,74.0338983 L88.7130709,71.8305085 L89.3593701,71.4576271 Z" id="Shape"></path>
                            <path d="M94.1215748,75.0508475 C95.0582228,75.189876 96.0147339,75.0171069 96.8428346,74.559322 L97.472126,74 L97.2680315,74.6779661 C96.9719724,74.7092022 96.6728719,74.6624465 96.4006299,74.5423729 C96.0264567,74.3389831 96.0604724,74 96.5026772,73.7627119 C96.9602305,73.5216418 97.5078009,73.5216418 97.9653543,73.7627119 C98.4415748,74.0338983 98.3055118,74.4915254 97.5061417,74.9491525 C96.399744,75.5468286 95.1255086,75.7614488 93.8834646,75.559322 L94.1215748,75.0508475 Z M96.1795276,76.2372881 C97.1160181,76.3676023 98.069765,76.1953325 98.9007874,75.7457627 L99.5300787,75.1864407 L99.3259843,75.8644068 C99.024321,75.8986875 98.7189486,75.8518693 98.4415748,75.7288136 C98.0674016,75.5084746 98.1184252,75.1864407 98.5606299,74.9322034 C99.017431,74.68813 99.566506,74.68813 100.023307,74.9322034 C100.499528,75.220339 100.363465,75.6610169 99.5640945,76.1186441 C98.4592631,76.7209089 97.1853381,76.9414369 95.9414173,76.7457627 L96.1795276,76.2372881 Z" id="Shape"></path>
                            <path d="M96.5026772,79.6610169 C97.6251969,79.0169492 99.0708661,79.220339 101.605039,80.3898305 C102.268346,79.9830508 102.55748,79.4915254 101.707087,79.0169492 C101.048609,78.6946094 100.33088,78.5100287 99.5981102,78.4745763 L99.8872441,77.9830508 C100.809031,78.0377728 101.710803,78.2739588 102.540472,78.6779661 C103.731024,79.3559322 103.492913,80.1694915 102.251339,80.8813559 L99.1729134,82.5762712 L98.5606299,82.220339 L99.1729134,81.7966102 L99.1729134,81.7966102 C98.3119312,81.814756 97.4577521,81.6410356 96.6727559,81.2881356 C95.7373228,80.8305085 95.6012598,80.1525424 96.5026772,79.6610169 Z M99.6491339,81.4745763 L100.95874,80.7288136 C98.9348031,79.7457627 97.9483465,79.6610169 97.2850394,80.0508475 C96.6217323,80.440678 96.9448819,80.7627119 97.4381102,81.0508475 C98.1328197,81.3564734 98.8913701,81.4902151 99.6491339,81.440678 L99.6491339,81.4745763 Z" id="Shape"></path>
                            <path d="M105.686929,80.6440678 L106.282205,81 L105.703937,81.3898305 L105.703937,81.3898305 C106.48151,81.3425256 107.25872,81.4881132 107.965984,81.8135593 C109.139528,82.4915254 108.765354,83.5084746 107.20063,84.3220339 C105.811956,85.2009404 104.083243,85.3587008 102.55748,84.7457627 C102.156589,84.5151091 101.910073,84.0884273 101.911181,83.6271186 L101.911181,83.6271186 L101.009764,84.2033898 L99.3089764,85.1694915 L98.6456693,84.7457627 L105.686929,80.6440678 Z M106.469291,83.8983051 C107.574803,83.2711864 107.948976,82.6440678 107.098583,82.2033898 C106.461275,81.9310318 105.762985,81.8316205 105.074646,81.9152542 L102.591496,83.3389831 C102.576247,83.7506751 102.792765,84.1364462 103.152756,84.3389831 C104.262513,84.7552889 105.507757,84.5898296 106.469291,83.8983051 L106.469291,83.8983051 Z" id="Shape"></path>
                            <path d="M111.044409,83.7288136 L111.639685,84.0677966 L111.061417,84.4745763 L111.061417,84.4745763 C111.838991,84.4272713 112.6162,84.572859 113.323465,84.8983051 C114.497008,85.5762712 114.122835,86.5932203 112.55811,87.4067797 C111.160819,88.2971609 109.416447,88.4551927 107.880945,87.8305085 C107.480054,87.5998548 107.233537,87.173173 107.234646,86.7118644 L107.234646,86.7118644 L106.333228,87.2711864 L104.632441,88.2542373 L103.901102,87.8305085 L111.044409,83.7288136 Z M111.826772,86.9830508 C112.932283,86.3559322 113.306457,85.7288136 112.456063,85.2881356 C111.818578,85.0160544 111.121841,84.9110295 110.432126,84.9830508 L107.948976,86.440678 C107.933728,86.85237 108.150245,87.2381412 108.510236,87.440678 C109.622795,87.8521366 110.868256,87.6802834 111.826772,86.9830508 L111.826772,86.9830508 Z" id="Shape"></path>
                            <path d="M115.551496,87.3728814 C116.48618,87.509572 117.440201,87.3431949 118.272756,86.8983051 L118.902047,86.3220339 L118.697953,87 C118.403404,87.0464644 118.101645,87.0051895 117.830551,86.8813559 C117.43937,86.6610169 117.507402,86.3389831 117.932598,86.0847458 C118.375015,85.8137448 118.924326,85.7819184 119.395276,86 C119.871496,86.2711864 119.735433,86.7288136 118.936063,87.1864407 C117.831662,87.7899314 116.557316,88.0105323 115.313386,87.8135593 L115.551496,87.3728814 Z M117.609449,88.559322 C118.546097,88.6983506 119.502608,88.5255815 120.330709,88.0677966 L120.96,87.5084746 L120.755906,88.1355932 C120.455867,88.1644891 120.153186,88.1238844 119.871496,88.0169492 C119.497323,87.7966102 119.548346,87.4576271 119.990551,87.220339 C120.447352,86.9762656 120.996427,86.9762656 121.453228,87.220339 C121.929449,87.4915254 121.793386,87.9491525 120.994016,88.4067797 C119.88979,89.0107048 118.613392,89.2256891 117.371339,89.0169492 L117.609449,88.559322 Z" id="Shape"></path>
                            <polygon id="Path" points="118.187717 92.0847458 122.949921 92.4237288 122.949921 92.4237288 122.456693 89.6610169 123.290079 89.1864407 124.021417 92.5762712 123.35811 92.9661017 117.422362 92.5423729"></polygon>
                            <path d="M36.6009449,60.0338983 C37.1006455,59.7687377 37.6999845,59.7687377 38.199685,60.0338983 C38.5908661,60.2542373 38.5568504,60.6610169 38.0466142,60.9491525 C37.5469136,61.2143132 36.9475746,61.2143132 36.447874,60.9491525 C36.039685,60.7288136 36.0737008,60.3389831 36.6009449,60.0338983 Z" id="Path"></path>
                            <path d="M41.9584252,63.1186441 C42.4581258,62.8534834 43.0574648,62.8534834 43.5571654,63.1186441 C43.9483465,63.3389831 43.9143307,63.7288136 43.4040945,64.0338983 C42.9043939,64.2990589 42.3050549,64.2990589 41.8053543,64.0338983 C41.3971654,63.8135593 41.4311811,63.4237288 41.9584252,63.1186441 Z" id="Path"></path>
                            <path d="M47.3159055,66.2033898 C47.8156061,65.9382292 48.4149451,65.9382292 48.9146457,66.2033898 C49.3058268,66.4237288 49.271811,66.8135593 48.7615748,67.1186441 C48.2618742,67.3838047 47.6625352,67.3838047 47.1628346,67.1186441 C46.7546457,66.8813559 46.7886614,66.5084746 47.3159055,66.2033898 Z" id="Path"></path>
                            <polygon id="Path" points="25.6818898 65.3050847 26.3451969 64.9152542 32.263937 65.3389831 31.4475591 65.8135593 26.6853543 65.4745763 26.6853543 65.4745763 27.2125984 68.2372881 26.3962205 68.7118644"></polygon>
                            <polygon id="Path" points="38.0125984 67.5254237 38.6759055 67.8983051 26.7703937 71.3898305 26.1070866 71"></polygon>
                            <path d="M35.2573228,71.4915254 C36.6568899,70.6629104 38.3692139,70.5495694 39.8664567,71.1864407 C40.3009289,71.3839754 40.565717,71.8305312 40.5297638,72.3050847 L40.5297638,72.3050847 L41.4141732,71.7457627 L43.336063,70.6440678 L44.0844094,71.0677966 L36.7370079,75.2881356 L36.1247244,74.9491525 L36.7370079,74.5254237 L36.7370079,74.5254237 C35.986961,74.6019409 35.2299582,74.4791334 34.5429921,74.1694915 C33.3864567,73.440678 33.5905512,72.4576271 35.2573228,71.4915254 Z M37.4173228,74.0338983 L39.9174803,72.5932203 C39.9653559,72.183332 39.7467027,71.7883915 39.3732283,71.6101695 C38.2963322,71.1862431 37.0803494,71.3061593 36.1077165,71.9322034 C34.9001575,72.6101695 34.6790551,73.3050847 35.4784252,73.7627119 C36.0857324,74.0348868 36.7582957,74.1289558 37.4173228,74.0338983 L37.4173228,74.0338983 Z" id="Shape"></path>
                            <path d="M44.7307087,74.8474576 L42.7237795,73.6779661 L43.4040945,73.2881356 L46.1593701,74.8644068 L41.0570079,77.7457627 L40.3086614,77.3220339 L44.7307087,74.8474576 Z M46.839685,73.2881356 C47.2287291,73.0861576 47.6922158,73.0861576 48.0812598,73.2881356 C48.4214173,73.4915254 48.4044094,73.7966102 48.0812598,74.0169492 C47.6971153,74.2379694 47.2238296,74.2379694 46.839685,74.0169492 C46.4144882,73.8135593 46.4314961,73.5254237 46.839685,73.2881356 Z" id="Shape"></path>
                            <path d="M48.4044094,76.1694915 L49.1697638,76.5932203 L47.3329134,78.8135593 L46.3294488,79.9322034 L46.3294488,79.9322034 C46.9587402,79.7288136 47.6050394,79.5254237 48.2853543,79.3389831 L52.1291339,78.2881356 L52.8434646,78.6949153 L46.040315,80.5423729 L45.2069291,80.0677966 L48.4044094,76.1694915 Z" id="Path"></path>
                            <polygon id="Path" points="50.5814173 81.6610169 55.343622 82 55.343622 82 54.7483465 79.2542373 55.5817323 78.779661 56.3130709 82.1694915 55.6497638 82.559322 49.7140157 82.1355932"></polygon>
                            <polygon id="Path" points="13.3171654 72.4067797 13.9634646 72.0338983 19.8992126 72.4576271 19.0658268 72.9322034 14.3206299 72.5932203 14.3206299 72.5932203 14.9159055 75.3389831 14.0825197 75.8135593"></polygon>
                            <polygon id="Path" points="25.6308661 74.5762712 26.2941732 74.9491525 14.3886614 78.440678 13.7423622 78.0508475"></polygon>
                            <path d="M21.9401575,80.3050847 L21.9401575,80.3050847 L21.3108661,80.5762712 L20.7325984,80.2372881 L28.0629921,76.0169492 L28.8113386,76.440678 L26.8044094,77.5932203 L25.8009449,78.1355932 L25.8009449,78.1355932 C26.5595845,78.068243 27.3225693,78.2027666 28.0119685,78.5254237 C29.1855118,79.2033898 28.8113386,80.220339 27.263622,81.0338983 C25.8706345,81.9185289 24.1341015,82.0764247 22.6034646,81.4576271 C22.176571,81.234368 21.9179636,80.7850195 21.9401575,80.3050847 Z M26.4982677,80.5932203 C27.6037795,79.9661017 27.9779528,79.3389831 27.1105512,78.8983051 C26.4799754,78.6233579 25.7864343,78.5237859 25.103622,78.6101695 L22.6034646,80.0338983 C22.6037197,80.4549545 22.8310807,80.8433705 23.1987402,81.0508475 C24.3069908,81.4500943 25.541531,81.2788701 26.4982677,80.5932203 L26.4982677,80.5932203 Z" id="Shape"></path>
                            <path d="M28.2500787,81.6949153 C29.6875481,80.7972063 31.4787282,80.6701603 33.0292913,81.3559322 C34.1688189,82.0169492 34.2198425,83.1525424 32.536063,84.1186441 C31.0913813,84.9884242 29.3085592,85.089948 27.7738583,84.3898305 C26.6343307,83.779661 26.5833071,82.6610169 28.2500787,81.6949153 Z M31.7707087,83.7288136 C32.9272441,83.0677966 33.1483465,82.3050847 32.3149606,81.8305085 C31.236405,81.3553725 29.9878572,81.4708172 29.0154331,82.1355932 C27.8588976,82.7966102 27.6548031,83.559322 28.488189,84.0338983 C29.5620106,84.5027021 30.8023982,84.3874177 31.7707087,83.7288136 Z" id="Shape"></path>
                            <path d="M33.6075591,84.7457627 C34.9931885,83.8893985 36.7060611,83.7445274 38.2166929,84.3559322 C38.6477417,84.5572402 38.9109851,85.0011909 38.88,85.4745763 L38.88,85.4745763 L39.7644094,84.9152542 L41.6862992,83.8135593 L42.4346457,84.2372881 L35.0872441,88.4576271 L34.4749606,88.1186441 L35.0702362,87.6949153 L35.0702362,87.6949153 C34.3146689,87.7712315 33.5522379,87.6484947 32.8592126,87.3389831 C31.7366929,86.7288136 31.9407874,85.7457627 33.6075591,84.7457627 Z M35.7165354,87.3220339 L38.2166929,85.8813559 C38.2564379,85.4684912 38.0318853,85.0751855 37.6554331,84.8983051 C36.5797792,84.4656347 35.3596162,84.5859631 34.3899213,85.220339 C33.1993701,85.8983051 32.9612598,86.5932203 33.7606299,87.0508475 C34.3757779,87.31661 35.051952,87.4103616 35.7165354,87.3220339 L35.7165354,87.3220339 Z" id="Shape"></path>
                            <path d="M34.4749606,90.5254237 L35.3083465,90.220339 C35.3976112,90.326084 35.5075652,90.4125901 35.6314961,90.4745763 C36.3399989,90.7940083 37.1458144,90.8244263 37.8765354,90.559322 L38.3697638,90.4067797 L41.3801575,86.440678 L42.1285039,86.8813559 L40.4277165,89.0677966 L39.5092913,90.220339 L39.5092913,90.220339 L41.4311811,89.6440678 L45.1218898,88.5932203 L45.8362205,89.0169492 L38.4888189,91.0338983 C37.346655,91.5122725 36.0593292,91.5122725 34.9171654,91.0338983 C34.7371461,90.8955604 34.5867821,90.7226624 34.4749606,90.5254237 Z" id="Path"></path>
                            <polygon id="Path" points="43.5571654 91.8644068 48.3193701 92.2033898 48.3193701 92.2033898 47.7240945 89.4576271 48.5404724 88.9830508 49.271811 92.3728814 48.6085039 92.7627119 42.6897638 92.3389831"></polygon>
                            <polygon id="Path" points="0.935433071 79.5423729 1.59874016 79.1525424 7.51748031 79.5762712 6.70110236 80.0508475 1.93889764 79.7118644 1.93889764 79.7118644 2.51716535 82.4576271 1.7007874 82.9322034"></polygon>
                            <polygon id="Path" points="13.2661417 81.7627119 13.9294488 82.1355932 2.02393701 85.6271186 1.36062992 85.2372881"></polygon>
                            <path d="M15.664252,83.0508475 L16.3955906,83.4745763 L14.4056693,84.7457627 L13.1640945,85.4067797 L13.1640945,85.4067797 C14.0477515,85.268402 14.9527337,85.3921864 15.7662992,85.7627119 C16.7867717,86.3559322 16.5486614,87.0338983 15.2390551,87.7966102 L12.1096063,89.4915254 L11.3782677,89.0677966 L14.3716535,87.3728814 C15.3240945,86.8305085 15.4941732,86.4067797 14.7798425,86 C14.0657546,85.7013645 13.2806911,85.6131292 12.5177953,85.7457627 L9.0311811,87.7457627 L8.28283465,87.3220339 L15.664252,83.0508475 Z" id="Path"></path>
                            <path d="M16.6337008,89.8305085 L18.9977953,88.4745763 L17.7732283,87.7627119 L18.4195276,87.3898305 L19.7291339,88.0847458 L21.4299213,87.220339 L22.0422047,87.5762712 L20.4434646,88.4915254 L22.5694488,89.7118644 L21.872126,90.1186441 L19.7461417,88.8983051 L17.3650394,90.2711864 C16.463622,90.779661 16.2595276,91.2033898 17.0929134,91.6779661 C17.4860083,91.8948032 17.9106411,92.0492019 18.3514961,92.1355932 L17.8922835,92.5932203 C17.2943341,92.4889187 16.7189504,92.2824958 16.1914961,91.9830508 C14.9669291,91.3050847 15.392126,90.5932203 16.6337008,89.8305085 Z" id="Path"></path>
                            <path d="M23.8110236,90.440678 L24.3892913,90.779661 L23.7940157,91.2033898 L23.7940157,91.2033898 C24.3570694,91.0401747 24.960058,91.0822382 25.4948031,91.3220339 C25.92,91.5762712 25.9029921,91.8983051 25.4948031,92.3050847 C26.1064064,92.0942347 26.775783,92.1245559 27.3656693,92.3898305 C27.9779528,92.7288136 27.7908661,93.2542373 26.7874016,93.8305085 L23.1987402,95.8983051 L22.4674016,95.4745763 L25.9880315,93.440678 C26.5662992,93.1186441 26.736378,92.8644068 26.4132283,92.6779661 C26.0900787,92.4915254 25.6818898,92.559322 24.9335433,92.6779661 L21.3108661,94.779661 L20.6305512,94.3898305 L24.1511811,92.3559322 C24.7294488,92.0169492 24.8995276,91.779661 24.5933858,91.5932203 C24.1094133,91.4212345 23.5806654,91.4212345 23.0966929,91.5932203 L19.4740157,93.6779661 L18.7426772,93.2542373 L23.8110236,90.440678 Z" id="Path"></path>
                            <path d="M27.4337008,96.4067797 L32.4170079,93.5423729 L30.8692913,92.6610169 L31.5666142,92.2711864 L33.8456693,93.5762712 L28.1140157,96.8644068 C27.399685,97.2881356 27.4166929,97.6610169 27.943937,97.9491525 C28.2634233,98.130405 28.6162627,98.2456907 28.9814173,98.2881356 L28.5222047,98.7627119 C28.0139476,98.6894229 27.5237558,98.5227584 27.0765354,98.2711864 C26.1411024,97.7457627 26.2431496,97.0847458 27.4337008,96.4067797 Z" id="Path"></path>
                            <polygon id="Path" points="31.1924409 98.9830508 35.9546457 99.3220339 35.9546457 99.3220339 35.3933858 96.6101695 36.2267717 96.1355932 36.9581102 99.5254237 36.2948031 99.9152542 30.3590551 99.4915254"></polygon>
                        </g>
                        <path d="M212.456386,1.45769788 L28.6708088,106.953923 C27.0732968,107.500372 26,109.001289 26,110.688829 C26,112.376369 27.0732968,113.877286 28.6708088,114.423736 L112.638429,163.462465 C116.695574,165.512512 121.486284,165.512512 125.543429,163.462465 L309.294955,59.3955438 C312.870219,57.3706969 312.904269,54.0186395 309.380081,51.908715 L225.293285,1.66188412 C221.299811,-0.479521069 216.516019,-0.555612997 212.456386,1.45769788 Z" id="Path" fill="#ABABAB"></path>
                        <polygon id="Path" fill-opacity="0.25" fill="#000000" points="237.516323 85 167 43.9285714 175.483677 39 246 80.0714286"></polygon>
                        <polygon id="Path" fill-opacity="0.25" fill="#000000" points="223.516323 94 153 52.9285714 161.483677 48 232 89.0714286"></polygon>
                        <polygon id="Path" fill-opacity="0.25" fill="#000000" points="163.516323 126 93 84.9285714 101.483677 80 172 121.071429"></polygon>
                        <polygon id="Path" fill-opacity="0.25" fill="#000000" points="150.516323 135 80 93.9285714 88.483677 89 159 130.071429"></polygon>
                        <ellipse id="Oval" fill-opacity="0.25" fill="#000000" transform="translate(235.878380, 42.576163) rotate(-6.950000) translate(-235.878380, -42.576163) " cx="235.87838" cy="42.5761633" rx="22.6515821" ry="12.808247"></ellipse>
                        <polygon id="Path" fill-opacity="0.25" fill="#000000" points="133.285714 85 111 72.0049505 136.714286 57 159 69.9950495"></polygon>
                        <polygon id="Path" fill-opacity="0.25" fill="#000000" points="159.285714 100 137 87.0049505 162.714286 72 185 84.9950495"></polygon>
                        <polygon id="Path" fill-opacity="0.25" fill="#000000" points="184.285714 115 162 102.00495 187.714286 87 210 99.9950495"></polygon>
                    </g>
                </g>
            </g>
        </g>
    </g>
</svg>