<?xml version="1.0" encoding="UTF-8"?>
<svg width="91px" height="11px" viewBox="0 0 91 11" version="1.1" xmlns="http://www.w3.org/2000/svg" xmlns:xlink="http://www.w3.org/1999/xlink">
    <!-- Generator: Sketch 53 (72520) - https://sketchapp.com -->
    <title>logo</title>
    <desc>Created with Sketch.</desc>
    <g id="wireframes-v3" stroke="none" stroke-width="1" fill="none" fill-rule="evenodd">
        <g id="Desktop-Copy-26" transform="translate(-80.000000, -46.000000)" fill="#FFFFFF" fill-rule="nonzero">
            <g id="Introduction">
                <g id="header">
                    <g id="logo" transform="translate(80.000000, 40.000000)">
                        <path d="M6.846,13.08 L5.614,9.566 L4.382,13.08 L6.846,13.08 Z M7.574,15.166 L3.654,15.166 L3.024,17 L0.098,17 L4.116,6.444 L7.112,6.444 L11.13,17 L8.204,17 L7.574,15.166 Z M15.078,6.444 L15.078,14.676 L18.368,14.676 L18.368,17 L12.334,17 L12.334,6.444 L15.078,6.444 Z M25.522,13.08 L24.29,9.566 L23.058,13.08 L25.522,13.08 Z M26.25,15.166 L22.33,15.166 L21.7,17 L18.774,17 L22.792,6.444 L25.788,6.444 L29.806,17 L26.88,17 L26.25,15.166 Z M31.01,17 L31.01,6.444 L33.754,6.444 L38.822,12.898 L38.822,6.444 L41.552,6.444 L41.552,17 L38.822,17 L33.754,10.546 L33.754,17 L31.01,17 Z" id="ALAN"></path>
                        <path d="M48.85,11.288 L49.76,11.288 C50.768005,11.288 51.272,10.8493377 51.272,9.972 C51.272,9.09466228 50.768005,8.656 49.76,8.656 L48.85,8.656 L48.85,11.288 Z M48.85,17 L46.106,17 L46.106,6.444 L50.474,6.444 C51.6593393,6.444 52.5669969,6.75199692 53.197,7.368 C53.8270031,7.98400308 54.142,8.8519944 54.142,9.972 C54.142,11.0920056 53.8270031,11.9599969 53.197,12.576 C52.5669969,13.1920031 51.6593393,13.5 50.474,13.5 L48.85,13.5 L48.85,17 Z M61.604,8.768 L58.342,8.768 L58.342,10.532 L61.422,10.532 L61.422,12.856 L58.342,12.856 L58.342,14.676 L61.604,14.676 L61.604,17 L55.598,17 L55.598,6.444 L61.604,6.444 L61.604,8.768 Z M66.322,11.162 L66.84,11.162 C67.381336,11.162 67.7966652,11.0500011 68.086,10.826 C68.3753348,10.6019989 68.52,10.2800021 68.52,9.86 C68.52,9.4399979 68.3753348,9.11800112 68.086,8.894 C67.7966652,8.66999888 67.381336,8.558 66.84,8.558 L66.322,8.558 L66.322,11.162 Z M72.356,17 L68.94,17 L66.322,12.94 L66.322,17 L63.578,17 L63.578,6.444 L67.848,6.444 C68.4360029,6.444 68.9493311,6.53033247 69.388,6.703 C69.8266689,6.87566753 70.1883319,7.11133184 70.473,7.41 C70.7576681,7.70866816 70.9723326,8.05399804 71.117,8.446 C71.2616674,8.83800196 71.334,9.25799776 71.334,9.706 C71.334,10.5086707 71.1403353,11.1596642 70.753,11.659 C70.3656647,12.1583358 69.7940038,12.4966658 69.038,12.674 L72.356,17 Z M79.51,8.768 L76.248,8.768 L76.248,10.532 L79.328,10.532 L79.328,12.856 L76.248,12.856 L76.248,14.676 L79.51,14.676 L79.51,17 L73.504,17 L73.504,6.444 L79.51,6.444 L79.51,8.768 Z M85.194,14.676 L89.618,14.676 L89.618,17 L80.588,17 L85.586,8.768 L81.428,8.768 L81.428,6.444 L90.164,6.444 L85.194,14.676 Z" id="PEREZ"></path>
                    </g>
                </g>
            </g>
        </g>
    </g>
</svg>