<?xml version="1.0" standalone="no"?>
<!DOCTYPE svg PUBLIC "-//W3C//DTD SVG 20010904//EN"
 "http://www.w3.org/TR/2001/REC-SVG-20010904/DTD/svg10.dtd">
<svg version="1.0" xmlns="http://www.w3.org/2000/svg"
 width="668.000000pt" height="668.000000pt" viewBox="0 0 668.000000 668.000000"
 preserveAspectRatio="xMidYMid meet">
<metadata>
Created by potrace 1.11, written by Peter Selinger 2001-2013
</metadata>
<g transform="translate(0.000000,668.000000) scale(0.100000,-0.100000)"
fill="#000000" stroke="none">
<path d="M2780 6657 c-3 -3 -21 -8 -40 -11 -41 -8 -45 -9 -85 -25 -16 -6 -43
-17 -60 -23 -150 -59 -342 -212 -474 -378 -28 -36 -56 -70 -61 -77 -35 -44
-131 -204 -189 -316 -57 -111 -162 -346 -186 -417 -1 -3 -7 -18 -13 -33 -7
-16 -12 -34 -12 -40 0 -7 -6 -21 -14 -32 -7 -11 -14 -23 -15 -28 0 -5 -59
-192 -118 -377 -2 -8 -4 -16 -4 -17 0 -2 -6 -21 -14 -44 -9 -23 -17 -51 -19
-63 -8 -40 -26 -76 -38 -77 -20 -2 -59 -6 -103 -13 -22 -3 -58 -8 -80 -11 -42
-6 -105 -15 -140 -20 -11 -2 -42 -6 -70 -10 -27 -3 -57 -8 -65 -10 -8 -2 -37
-7 -65 -10 -27 -4 -59 -9 -70 -10 -18 -3 -73 -12 -130 -20 -11 -2 -90 -14
-175 -28 -85 -14 -175 -29 -200 -32 -25 -4 -52 -9 -60 -10 -8 -2 -18 -4 -22
-4 -4 -1 -5 -11 -2 -23 3 -13 7 -39 9 -58 3 -19 7 -46 10 -60 2 -13 7 -42 10
-65 4 -22 17 -105 31 -185 13 -80 25 -157 26 -172 3 -31 4 -32 79 -18 30 5 74
12 99 15 25 4 63 10 85 15 22 5 67 12 100 15 33 4 76 10 95 15 19 5 62 12 95
16 84 10 87 10 120 17 17 4 50 9 75 12 25 2 55 6 67 9 12 3 49 7 83 11 56 6
61 5 56 -12 -6 -19 -35 -152 -42 -193 -2 -14 -7 -36 -10 -50 -8 -33 -10 -42
-28 -130 -22 -109 -28 -138 -61 -315 -23 -125 -29 -155 -40 -220 -3 -16 -8
-43 -12 -60 -3 -16 -7 -37 -8 -45 -13 -95 -17 -117 -20 -130 -3 -8 -7 -33 -10
-55 -6 -41 -11 -70 -21 -115 -3 -14 -7 -38 -9 -55 -2 -16 -6 -43 -9 -60 -30
-195 -38 -244 -42 -265 -2 -14 -7 -43 -9 -65 -3 -22 -10 -69 -16 -105 -20
-127 -21 -140 -10 -141 6 -1 14 -2 19 -3 11 -3 105 -19 122 -21 8 -1 33 -5 55
-8 22 -4 58 -9 80 -12 23 -3 50 -7 60 -9 32 -6 102 -17 202 -31 45 -6 43 -9
57 80 3 17 7 44 10 60 3 17 8 55 11 85 4 30 8 57 10 60 2 3 6 29 10 59 4 30 9
63 11 75 3 12 7 39 10 61 7 65 12 100 15 100 1 0 3 9 4 20 4 32 14 94 30 180
7 44 17 98 20 120 18 114 18 111 35 195 6 30 13 69 15 85 2 17 7 41 9 55 11
51 16 76 21 105 4 29 19 104 30 155 3 14 8 41 11 60 11 56 11 60 38 183 14 65
28 131 31 145 9 48 14 73 19 90 3 9 8 28 10 42 35 166 40 180 61 181 11 0 28
2 37 4 10 2 42 6 70 9 51 5 90 10 181 21 23 3 62 8 87 10 98 10 147 15 190 20
25 3 70 7 100 10 30 2 75 6 100 9 25 3 77 8 115 11 39 4 86 8 105 10 19 2 74
6 123 10 86 6 87 5 88 -17 0 -13 3 -59 7 -103 8 -105 7 -827 -2 -980 -6 -117
-12 -192 -21 -305 -3 -30 -7 -82 -10 -115 -6 -70 -13 -145 -20 -195 -2 -19 -7
-62 -11 -95 -3 -33 -8 -69 -11 -80 -2 -11 -5 -38 -7 -60 -5 -47 -13 -108 -27
-188 -5 -31 -7 -62 -4 -67 3 -6 2 -10 -2 -10 -5 0 -9 -8 -9 -17 -1 -23 -9 -69
-28 -160 -9 -40 -18 -85 -21 -100 -2 -16 -9 -43 -14 -60 -5 -18 -7 -33 -4 -33
3 0 0 -6 -6 -13 -6 -8 -9 -16 -6 -19 3 -2 0 -19 -5 -38 -5 -18 -12 -51 -16
-74 -3 -22 -7 -44 -10 -47 -2 -4 -6 -24 -10 -45 -3 -20 -10 -47 -14 -60 -5
-12 -7 -24 -4 -27 2 -2 0 -15 -5 -29 -5 -14 -12 -40 -15 -59 -3 -19 -13 -65
-21 -104 -9 -38 -18 -81 -20 -95 -3 -14 -8 -36 -11 -50 -3 -14 -8 -36 -10 -49
-3 -12 -12 -53 -20 -90 -9 -36 -18 -75 -20 -86 -3 -20 -10 -57 -20 -105 -3
-14 -9 -41 -14 -60 -5 -19 -12 -47 -15 -62 -3 -16 -7 -39 -10 -53 -3 -14 -7
-36 -10 -50 -3 -14 -7 -36 -10 -49 -6 -27 -1 -33 36 -40 21 -4 90 -19 139 -31
25 -6 140 -33 235 -54 50 -11 107 -25 128 -30 27 -7 40 -6 43 2 2 7 22 95 45
197 22 102 42 192 44 200 2 8 18 80 35 160 18 80 34 152 36 160 4 15 28 123
38 171 82 376 83 383 96 459 6 30 12 65 14 76 2 12 7 37 10 55 3 19 12 68 21
109 9 41 19 89 21 105 7 43 24 95 32 96 4 0 14 2 22 4 16 3 226 87 275 110 60
27 125 54 128 53 1 -1 20 7 42 19 22 12 69 35 105 51 123 56 415 201 480 238
36 20 94 52 130 72 36 19 76 42 90 51 14 9 43 26 65 36 22 11 42 23 45 26 3 4
27 19 55 33 27 15 56 32 65 39 8 7 31 21 50 31 41 23 180 111 195 124 6 5 15
11 20 13 20 8 160 104 163 111 2 5 10 8 17 8 7 0 15 4 17 8 2 4 44 37 93 72
50 35 92 67 95 70 3 3 46 39 95 79 85 70 255 236 300 291 85 105 174 258 191
326 4 16 9 33 12 39 11 18 16 71 16 170 0 78 -5 115 -23 167 -40 120 -120 223
-241 313 -65 48 -192 115 -217 115 -7 0 -13 4 -13 10 0 5 -3 9 -7 8 -5 -1 -53
13 -108 30 -87 28 -195 56 -260 68 -85 15 -258 41 -335 49 -30 3 -73 8 -95 10
-22 3 -80 7 -129 10 -49 3 -93 8 -97 11 -5 3 -9 0 -9 -7 0 -7 -4 -8 -12 -2
-16 11 -185 17 -533 16 -240 0 -596 -8 -620 -13 -31 -7 -51 1 -52 23 -1 12 -3
32 -6 43 -7 27 -16 82 -22 137 -3 23 -8 53 -11 67 -9 37 -22 101 -29 140 -3
19 -17 80 -30 135 -13 55 -26 112 -28 126 -7 35 -84 311 -98 345 -6 16 -12 36
-14 44 -6 30 -68 208 -102 290 -53 133 -74 170 -131 231 -92 99 -197 148 -337
156 -50 2 -93 2 -95 0z m45 -717 c3 -8 22 -66 44 -127 21 -62 37 -113 35 -113
-2 0 1 -12 7 -27 6 -16 12 -35 14 -44 2 -9 13 -49 25 -90 12 -41 23 -83 25
-95 1 -11 4 -25 7 -30 4 -5 9 -27 12 -49 4 -22 11 -56 16 -75 5 -19 12 -53 16
-75 3 -22 8 -44 11 -48 2 -4 6 -20 8 -35 10 -72 37 -227 41 -233 7 -12 -14
-21 -64 -25 -26 -2 -71 -6 -100 -9 -30 -3 -81 -7 -115 -10 -34 -3 -84 -7 -112
-10 -27 -3 -79 -7 -115 -10 -36 -3 -75 -7 -87 -10 -12 -2 -57 -7 -100 -10 -43
-4 -86 -9 -95 -10 -9 -2 -48 -7 -85 -10 -37 -4 -76 -9 -85 -11 -20 -3 -23 13
-9 48 5 13 21 61 36 108 15 47 31 94 35 105 5 11 25 65 45 120 20 55 44 116
52 135 9 19 25 55 35 80 56 128 191 375 218 400 3 3 18 23 34 45 39 53 154
166 191 187 l30 17 13 -37 c7 -20 15 -44 17 -52z m1989 -1615 c61 -4 142 -9
179 -10 37 -2 84 -7 105 -10 20 -3 66 -8 101 -11 34 -2 66 -6 70 -9 4 -2 36
-7 72 -11 35 -3 67 -8 71 -10 4 -3 26 -7 50 -10 24 -4 51 -10 61 -15 9 -6 17
-8 17 -5 0 3 15 0 33 -5 17 -6 39 -12 47 -14 83 -20 210 -84 210 -105 0 -43
-176 -244 -299 -341 -24 -18 -48 -39 -55 -44 -77 -70 -635 -445 -661 -445 -3
0 -28 -15 -57 -33 -29 -19 -89 -53 -133 -77 -44 -23 -84 -46 -90 -50 -31 -23
-367 -196 -485 -249 -325 -148 -334 -151 -327 -124 4 10 9 54 12 98 7 84 9
120 21 325 10 161 10 868 1 1028 -6 95 -4 122 5 123 7 0 96 3 198 6 102 3 186
6 187 7 5 5 567 -3 667 -9z"/>
</g>
</svg>
