<?xml version="1.0" encoding="UTF-8"?>
<svg width="354px" height="304px" viewBox="0 0 354 304" version="1.1" xmlns="http://www.w3.org/2000/svg" xmlns:xlink="http://www.w3.org/1999/xlink">
    <!-- Generator: Sketch 52.6 (67491) - http://www.bohemiancoding.com/sketch -->
    <title>dev-illustration-3</title>
    <desc>Created with Sketch.</desc>
    <defs>
        <path d="M228.578365,1.76690652 L21.0163331,129.641118 C19.2121499,130.303481 18,132.122775 18,134.168278 C18,136.213781 19.2121499,138.033075 21.0163331,138.695437 L115.846898,198.136321 C120.428917,200.621226 125.839405,200.621226 130.421425,198.136321 L337.945002,71.9945986 C341.9828,69.5402387 342.021255,65.4771388 338.04114,62.9196545 L243.075982,2.014405 C238.56587,-0.58123766 233.163197,-0.6734703 228.578365,1.76690652 Z" id="path-1"></path>
        <filter x="-3.9%" y="-5.8%" width="111.5%" height="123.0%" filterUnits="objectBoundingBox" id="filter-2">
            <feMorphology radius="1" operator="dilate" in="SourceAlpha" result="shadowSpreadOuter1"></feMorphology>
            <feOffset dx="6" dy="16" in="shadowSpreadOuter1" result="shadowOffsetOuter1"></feOffset>
            <feGaussianBlur stdDeviation="2.5" in="shadowOffsetOuter1" result="shadowBlurOuter1"></feGaussianBlur>
            <feColorMatrix values="0 0 0 0 0   0 0 0 0 0   0 0 0 0 0  0 0 0 0.05 0" type="matrix" in="shadowBlurOuter1"></feColorMatrix>
        </filter>
    </defs>
    <g id="wireframes-v3" stroke="none" stroke-width="1" fill="none" fill-rule="evenodd">
        <g id="Desktop-Copy-21" transform="translate(-611.000000, -189.000000)">
            <g id="Introduction">
                <g id="dev-illustration-3" transform="translate(611.000000, 189.000000)">
                    <path d="M341,166.780678 L340.893438,149.049983 L308.640521,143.723324 L237.598854,99.0240929 C232.819478,96.3789016 227.114744,96.323381 222.289375,98.8750955 L67.77375,192.221991 L0,218.110295 L0,236.734975 L0.213125,236.846723 C0.703499246,238.462132 1.7910717,239.803892 3.23239583,240.571659 L103.330104,302.033103 C108.158508,304.622438 113.871825,304.65699 118.728385,302.126226 L337.714323,171.548596 C339.570104,170.724048 340.835902,168.887221 341,166.780678 Z" id="Path" fill="#E6E6E6"></path>
                    <path d="M61.952381,277.259749 L36.047619,259.402996 C33.7647103,257.772789 32.263371,254.948521 32,251.788753 C32,249.121835 33.8133333,248.213537 36.047619,249.740251 L61.952381,267.597004 C64.2352897,269.227211 65.736629,272.051479 66,275.211247 C66,277.878165 64.1866667,278.786463 61.952381,277.259749 Z" id="Path" fill="#B3B3B3"></path>
                    <path d="M276.742308,201.524663 L294.257692,190.405386 C295.815404,189.348043 296.822851,187.630523 297,185.730235 C297,184.069564 295.761538,183.50999 294.257692,184.466681 L276.742308,195.567907 C275.206249,196.613207 274.202263,198.29839 274,200.170855 C274,201.975932 275.238462,202.481354 276.742308,201.524663 Z" id="Path" fill="#666666"></path>
                    <path d="M222.30671,80.885483 L3.14698757,213.21013 C1.26158492,213.905377 2.02204536e-15,215.773235 0,217.869449 C-2.02204536e-15,219.965663 1.26158492,221.833521 3.14698757,222.528767 L103.291644,284.031772 C108.122312,286.622859 113.838309,286.657434 118.697148,284.124959 L337.768026,153.570853 C342.032526,151.036183 342.085832,146.824159 337.874639,144.252216 L237.62337,81.0159439 C232.838869,78.3748396 227.131473,78.3262264 222.30671,80.885483 Z" id="Path" fill="#000000"></path>
                    <path d="M219.27973,93.625554 L27.7828708,211.269829 C26.1183303,211.879203 25,213.552953 25,215.434816 C25,217.316678 26.1183303,218.990429 27.7828708,219.599802 L115.273608,274.285415 C119.500983,276.571528 124.492702,276.571528 128.720076,274.285415 L320.181457,158.235031 C323.906732,155.97702 323.94221,152.238968 320.270154,149.886082 L232.655241,93.8532526 C228.494208,91.4652614 223.509698,91.3804073 219.27973,93.625554 Z" id="Path" fill="#29ABE2"></path>
                    <path d="M219.27973,93.625554 L27.7828708,211.269829 C26.1183303,211.879203 25,213.552953 25,215.434816 C25,217.316678 26.1183303,218.990429 27.7828708,219.599802 L115.273608,274.285415 C119.500983,276.571528 124.492702,276.571528 128.720076,274.285415 L320.181457,158.235031 C323.906732,155.97702 323.94221,152.238968 320.270154,149.886082 L232.655241,93.8532526 C228.494208,91.4652614 223.509698,91.3804073 219.27973,93.625554 Z" id="Path" fill="#333333"></path>
                    <g id="Group" transform="translate(65.000000, 111.000000)" fill="#CCCCCC">
                        <polygon id="Path" points="141.525631 1.31302218 142.210688 0.911820958 148.341064 1.36773144 147.550615 1.82364192 142.632261 1.45891353 142.632261 1.45891353 143.247055 4.41321344 142.386343 4.92383317"></polygon>
                        <path d="M145.548142,6.72923867 C146.020698,6.46985965 146.586223,6.46985965 147.058779,6.72923867 C147.41009,6.9480757 147.427656,7.31280408 146.918255,7.62282321 C146.445699,7.88220222 145.880174,7.88220222 145.407618,7.62282321 C145.038741,7.40398618 145.038741,7.02102137 145.548142,6.72923867 Z M151.309642,3.64728383 L152.293313,3.045482 L153.048632,3.50139248 L152.02983,4.08495789 L148.270802,6.21861893 L147.743836,5.90859981 L151.309642,3.64728383 Z" id="Shape" fill-rule="nonzero"></path>
                        <path d="M151.432601,7.98755159 C152.859155,7.07222668 154.620175,6.91648454 156.175299,7.56811395 C156.624018,7.78065117 156.897488,8.26112229 156.860356,8.77171761 L157.773764,8.1881522 L159.776237,6.98454854 L160.531556,7.44045901 L152.943238,11.9995638 L152.328444,11.616599 L152.943238,11.1606885 C152.168598,11.2430171 151.386774,11.1108825 150.677282,10.7777237 C149.500391,10.0847398 149.693612,9.11820958 151.432601,7.98755159 Z M153.593164,10.7230145 L156.157734,9.11820958 C156.207179,8.67719077 155.981357,8.25225497 155.595636,8.06049727 C154.48343,7.60437423 153.227576,7.73339789 152.223051,8.40698923 C150.993462,9.136446 150.747545,9.88413918 151.573126,10.3765225 C152.200903,10.6895327 152.901771,10.8097509 153.593164,10.7230145 Z" id="Shape" fill-rule="nonzero"></path>
                        <path d="M156.965749,11.3065799 C158.459314,10.3584582 160.308901,10.2422879 161.901669,10.9965607 C163.07856,11.7077811 163.113691,12.9296212 161.392268,13.9690971 C159.900216,14.9049359 158.058936,15.0141703 156.473914,14.2608798 C155.279456,13.5496594 155.244325,12.3460558 156.965749,11.3065799 Z M160.601818,13.4949502 C161.796275,12.7837298 162.024627,11.963091 161.163915,11.4524712 C160.020999,10.899392 158.680234,11.0246695 157.650806,11.7807268 C156.473914,12.4919471 156.263127,13.312586 157.106274,13.8232057 C158.247427,14.3506328 159.570344,14.2264019 160.601818,13.4949502 Z" id="Shape" fill-rule="nonzero"></path>
                        <path d="M162.674553,14.7350267 C164.291008,13.7468988 166.285129,13.6985922 167.944218,14.6073717 C168.681971,15.0450458 168.875192,15.5556655 168.822495,16.0298124 L167.891521,16.139231 C167.893831,15.6801839 167.640636,15.261022 167.241596,15.0632822 C166.058209,14.4462944 164.652932,14.501349 163.517699,15.2091736 C162.323242,15.9203939 162.235414,16.8139785 163.271781,17.4157803 C163.896193,17.7439884 164.593084,17.8949811 165.29182,17.8534544 L165.063467,18.4187833 C164.168984,18.4551112 163.28033,18.2542745 162.481332,17.8352179 C161.023391,16.9963427 160.953129,15.7745026 162.674553,14.7350267 Z" id="Path"></path>
                        <path d="M168.804929,19.0935309 L171.264106,17.6163809 L169.981821,16.8504513 L170.649312,16.4674865 L172.001859,17.2151797 L173.758414,16.2668859 L174.390774,16.6498507 L172.739613,17.6528537 L174.935306,18.9658759 L174.215119,19.3853136 L172.019425,18.0722914 L169.560248,19.5494413 C168.629274,20.1147703 168.418487,20.5524444 169.296765,21.0813005 C169.703671,21.3124991 170.141907,21.4785026 170.596615,21.5736839 L170.10478,22.0660672 C169.4895,21.9450675 168.89661,21.7234753 168.348225,21.4095561 C167.083506,20.6253901 167.522644,19.8594605 168.804929,19.0935309 Z" id="Path"></path>
                        <path d="M168.927888,24.1085461 L169.7886,23.7802906 C169.874986,23.9046213 169.989635,24.004855 170.122346,24.0720733 C170.86368,24.3963108 171.699664,24.3963108 172.440998,24.0720733 L172.950399,23.9261819 L176.059501,19.5676778 L176.832386,20.0418246 L175.075831,22.3943227 L174.127291,23.6343992 L176.112198,23.014361 L179.941488,21.883703 L180.679241,22.321377 L173.090923,24.4915109 C171.907035,25.015541 170.568481,25.015541 169.384593,24.4915109 C169.207793,24.3991313 169.052074,24.2685547 168.927888,24.1085461 Z" id="Path"></path>
                        <path d="M181.996657,23.1967252 L182.629017,23.57969 L182.031788,24.017364 C182.835363,23.9576936 183.640148,24.1147465 184.368006,24.4732745 C185.580029,25.1844949 185.193587,26.1874979 183.577556,27.1540281 C182.134449,28.1120327 180.33288,28.2820668 178.74703,27.6099386 C178.328431,27.3687782 178.076868,26.9029059 178.097105,26.4063349 L177.166131,27.0081368 L175.409576,28.0476127 L174.654257,27.5917022 L181.996657,23.1967252 Z M182.822238,26.7163541 C183.946433,26.0233701 184.350441,25.3486226 183.454598,24.8927121 C182.805001,24.5906728 182.088655,24.4772262 181.381863,24.5644566 L178.799727,26.1145522 C178.790037,26.5560306 179.021174,26.9653825 179.396956,27.1722645 C180.53982,27.6287963 181.827265,27.4574353 182.822238,26.7163541 Z" id="Shape" fill-rule="nonzero"></path>
                        <path d="M184.719317,27.9199577 C186.241711,26.9923042 188.105039,26.8969419 189.707933,27.6646479 C191.007784,28.4488139 190.779432,29.4882898 189.321491,30.3636379 L188.759394,30.6554206 L184.965235,28.3758682 L185.650291,27.974667 L188.987746,29.9806731 L188.548607,29.9806731 C189.778195,29.2512163 189.848458,28.5764688 189.040442,28.1570312 C187.896631,27.6472087 186.5851,27.7493303 185.527332,28.4305775 C184.192351,29.2329799 184.262613,30.0900916 185.246284,30.6918934 C185.82274,31.0060347 186.458025,31.1864771 187.108232,31.2207496 L186.809618,31.7313693 C185.975298,31.6828918 185.163356,31.4331282 184.438268,31.0019126 C183.05059,30.1995101 182.997893,28.9594336 184.719317,27.9199577 Z" id="Path"></path>
                        <path d="M201.002581,31.7131329 L201.775466,32.1690434 L199.702731,33.4091199 L198.420446,34.1203402 C199.334811,33.9845616 200.267503,34.1237963 201.107975,34.5215415 C202.161908,35.1598161 201.933556,35.8892729 200.563443,36.6916753 L197.348947,38.6247358 L196.576063,38.1688253 L199.685165,36.3451834 C200.668836,35.761618 200.826926,35.3057075 200.089173,34.8680334 C199.357181,34.5720919 198.559685,34.4962488 197.788086,34.6491964 L194.274976,36.8010939 L193.502092,36.3451834 L201.002581,31.7131329 Z" id="Path"></path>
                        <path d="M202.003818,38.9894641 L204.462995,37.5123142 L203.18071,36.764621 L203.8482,36.3634198 L205.200748,37.111113 L206.957303,36.1810556 L207.589662,36.545784 L205.938501,37.548787 L208.134194,38.8618092 L207.414007,39.2994833 L205.218313,37.9864611 L202.759136,39.4453746 C201.828162,40.0107036 201.617376,40.4483777 202.495653,40.9772338 C202.899023,41.2164402 203.338533,41.3829264 203.795504,41.4696172 L203.303668,41.9620005 C202.688388,41.8410008 202.095498,41.6194086 201.547113,41.3054894 C200.247263,40.5213234 200.721533,39.7553938 202.003818,38.9894641 Z" id="Path"></path>
                        <path d="M209.346217,39.591266 L209.943446,39.9559944 L209.328652,40.4119048 C209.910168,40.2362938 210.532928,40.2815519 211.085207,40.5395598 C211.541911,40.8131061 211.50678,41.159598 211.085207,41.5790357 C211.72024,41.3669142 212.408375,41.4058824 213.017417,41.6884542 C213.649777,42.0531826 213.456556,42.6185116 212.420189,43.2385498 L208.713858,45.4633929 L207.958539,45.0074825 L211.612173,42.8191122 C212.209402,42.4726202 212.367492,42.1808375 212.033746,41.9984733 C211.700001,41.8161091 211.278428,41.8708184 210.523109,41.9984733 L206.764082,44.2415529 L206.06146,43.8221152 L209.715094,41.6519813 C210.294757,41.287253 210.487978,41.0319431 210.154233,40.8313425 C209.820487,40.6307419 209.363783,40.6854511 208.608464,40.8313425 L204.867002,43.074422 L204.111684,42.6185116 L209.346217,39.591266 Z" id="Path"></path>
                        <path d="M213.157942,46.0104855 L218.304648,42.9285307 L216.706183,41.9802369 L217.42637,41.5607993 L219.780154,42.9650035 L213.860564,46.5028688 C213.122811,46.9587793 213.140376,47.3599805 213.684908,47.6699997 C214.019428,47.8541205 214.381821,47.9774756 214.756407,48.034728 L214.282137,48.5453478 C213.757214,48.4664926 213.250949,48.2871702 212.789065,48.0164916 C211.82296,47.4146898 211.928353,46.7399423 213.157942,46.0104855 Z" id="Path"></path>
                        <polygon id="Path" points="217.039928 48.7824212 221.958282 49.1471496 221.958282 49.1471496 221.325922 46.1746133 222.169068 45.6639936 222.924387 49.3112774 222.239331 49.730715 216.196782 49.2383317"></polygon>
                        <polygon id="Path" points="128.755477 8.99055464 129.440533 8.571117 135.553344 9.02702748 134.710198 9.53764722 129.791844 9.17291883 129.791844 9.17291883 130.406639 12.1272187 129.563492 12.6378385"></polygon>
                        <path d="M138.434095,9.5194108 L139.189413,9.97532128 L137.116678,11.2153978 L135.851959,11.9266181 C136.758934,11.7946402 137.683391,11.9272393 138.521922,12.3095829 C139.575855,12.9478576 139.347503,13.6773144 137.97739,14.4979532 L134.798026,16.4127772 L134.042707,15.9386303 L137.134244,14.1149884 C138.117915,13.5131866 138.276005,13.0755125 137.555817,12.6378385 C136.822214,12.3020747 136.008975,12.2005049 135.219599,12.3460558 L131.601096,14.5891353 L130.845777,14.1332248 L138.434095,9.5194108 Z" id="Path"></path>
                        <path d="M139.435331,16.795742 L141.876942,15.3368285 L140.612223,14.5708989 L141.262148,14.1696977 L142.614695,14.9173909 L144.37125,13.9873335 L145.00361,14.3702983 L143.247055,15.3550649 L145.442749,16.6680871 L144.740127,17.1057612 L142.544433,15.792739 L140.067691,17.2698889 C139.154282,17.8169815 138.943496,18.272892 139.804207,18.7835117 C140.209385,19.0226231 140.647905,19.1948866 141.104058,19.2941315 L140.629788,19.7682784 C140.015667,19.652413 139.422911,19.4370249 138.873233,19.1300037 C137.713907,18.3276012 138.153046,17.5616716 139.435331,16.795742 Z" id="Path"></path>
                        <path d="M146.760165,17.3975439 L147.374959,17.7622723 L146.760165,18.2181827 C147.341681,18.0425717 147.964441,18.0878298 148.51672,18.3458377 C148.955859,18.619384 148.938293,18.9658759 148.51672,19.40355 C149.143406,19.148369 149.83981,19.148369 150.466496,19.40355 C151.098856,19.7682784 150.888069,20.3336074 149.869267,20.9536456 L146.162936,23.1784887 L145.407618,22.7225783 L149.043686,20.534208 C149.640915,20.187716 149.799005,19.9141697 149.46526,19.7135691 C149.131514,19.5129685 148.727507,19.5859142 147.954622,19.7135691 L144.195595,21.9748851 L143.510538,21.5554474 L147.146607,19.3670771 C147.743836,19.0023488 147.919491,18.7470389 147.585746,18.5464383 C147.091969,18.3611972 146.55132,18.3611972 146.057543,18.5464383 L142.28095,20.9536456 L141.525631,20.4977351 L146.760165,17.3975439 Z" id="Path"></path>
                        <path d="M150.589455,23.8167634 L155.718595,20.7348086 L154.137696,19.7865148 L154.857883,19.3670771 L157.194101,20.7712814 L151.292077,24.3091467 C150.536758,24.7650572 150.571889,25.1662584 151.098856,25.4762776 C151.43012,25.6682272 151.793927,25.7920637 152.170354,25.8410059 L151.71365,26.3516257 C151.183872,26.2697749 150.672352,26.0906977 150.203013,25.8227695 C149.30717,25.2574405 149.30717,24.5462202 150.589455,23.8167634 Z" id="Path"></path>
                        <path d="M159.477623,23.8532363 L160.636949,23.1420159 L161.603054,23.7073449 L160.408597,24.4003288 L157.773764,25.6951146 L157.264364,25.3850955 L159.477623,23.8532363 Z M161.585489,25.1297856 L162.744815,24.4185652 L163.763617,25.0203671 L162.586725,25.7315874 L159.951893,27.0081368 L159.424926,26.7163541 L161.585489,25.1297856 Z" id="Shape" fill-rule="nonzero"></path>
                        <path d="M167.188899,33.7738483 L172.318039,30.6918934 L170.73714,29.7435996 L171.457327,29.3059256 L173.793545,30.7283663 L167.891521,34.2662316 C167.136202,34.7221421 167.171333,35.1233433 167.6983,35.4333624 C168.03282,35.6174833 168.395212,35.7408384 168.769798,35.7980908 L168.313094,36.3087105 C167.783316,36.2268597 167.271796,36.0477826 166.802457,35.7798544 C165.853917,35.196289 165.95931,34.503305 167.188899,33.7738483 Z" id="Path"></path>
                        <path d="M170.789837,36.4728383 C171.949163,35.7798544 173.4598,36.0169278 176.059501,37.2570043 C176.726992,36.8193303 177.025607,36.2904741 176.164895,35.7798544 C175.481157,35.4434317 174.741927,35.2453766 173.986767,35.196289 L174.267815,34.6674328 C175.225805,34.7239194 176.163337,34.9781035 177.025607,35.415126 C178.255195,36.1445828 178.009277,37.0199309 176.709427,37.7858605 L173.530062,39.6095024 L172.897702,39.244774 L173.547628,38.7706271 C172.658415,38.7901511 171.776228,38.6032369 170.965492,38.2235345 C170.016952,37.6946784 169.876428,36.9652216 170.789837,36.4728383 Z M174.057029,38.2964802 L175.39201,37.4940778 C173.319276,36.4363655 172.300474,36.3634198 171.615417,36.764621 C170.930361,37.1658222 171.246541,37.5305506 171.773507,37.8405697 C172.488001,38.181916 173.27155,38.3383534 174.057029,38.2964802 Z" id="Shape" fill-rule="nonzero"></path>
                        <path d="M180.275233,37.4940778 L180.907593,37.8770426 L180.099578,38.4241352 C181.013943,38.2883565 181.946635,38.4275912 182.787107,38.8253364 C183.858605,39.463611 183.612688,40.1930678 182.242575,41.0137067 L179.028079,42.8373486 L178.272761,42.3814381 L181.364297,40.5577962 C182.347968,39.9742308 182.506058,39.5183203 181.78587,39.0988827 C181.052267,38.7631189 180.239028,38.6615491 179.449652,38.8071 L175.831149,40.9589974 L175.075831,40.5030869 L180.275233,37.4940778 Z" id="Path"></path>
                        <path d="M179.502349,44.3692078 C180.08896,44.0865483 180.744952,43.9974395 181.381863,44.1138979 C181.276469,43.8768245 181.381863,43.5850418 181.768305,43.3297319 C182.23301,43.1000466 182.749016,43.0055088 183.261377,43.0561856 C183.261377,42.7096937 183.437032,42.290256 184.051826,41.9255276 C185.181921,41.29656 186.540235,41.29656 187.670329,41.9255276 C187.878479,42.0398421 188.05872,42.2020174 188.197296,42.3996745 L190.059244,43.5120961 L189.339057,43.9315337 L188.17973,43.2385498 C188.079051,43.60676 187.837956,43.9163452 187.51224,44.0956615 C186.417207,44.7151201 185.094162,44.7151201 183.99913,44.0956615 C183.767676,43.9610652 183.573958,43.7662335 183.437032,43.5303325 C183.113922,43.4770395 182.782841,43.5279618 182.488492,43.6762239 C182.084485,43.9132973 182.225009,44.2415529 182.822238,44.5880448 L183.823474,45.1898467 C184.9828,45.8828306 185.193587,46.4299232 184.31531,47.0134886 C182.903352,47.6146234 181.297964,47.4649604 180.01175,46.6122874 C178.817293,45.68223 178.58894,44.9163004 179.502349,44.3692078 Z M183.542425,46.5028688 C184.034261,46.2110861 183.823474,45.9193034 183.138418,45.5181022 L182.26014,44.9892461 C182.043192,44.8642737 181.842494,44.7110657 181.662912,44.5333356 C181.182289,44.428556 180.681749,44.4927111 180.240102,44.7156998 C179.69557,45.0439553 179.85366,45.5363386 180.819765,46.119904 C181.618813,46.6849644 182.627361,46.8268252 183.542425,46.5028688 Z M186.950142,43.5485689 C187.670329,43.1291313 187.705461,42.5455659 187.125797,42.2173103 C186.405705,41.8619701 185.562325,41.9030134 184.877407,42.3267289 C184.139654,42.7644029 184.122088,43.3297319 184.684186,43.6762239 C185.412005,44.0326096 186.263742,43.9846262 186.950142,43.5485689 Z" id="Shape" fill-rule="nonzero"></path>
                        <path d="M188.81209,45.5910479 L192.764339,47.9617824 L192.114413,48.3629836 L188.144599,45.9740127 L188.81209,45.5910479 Z M191.078046,44.2233164 L195.04786,46.5940509 L194.380369,46.9952522 L190.428121,44.6062812 L191.078046,44.2233164 Z" id="Shape" fill-rule="nonzero"></path>
                        <path d="M198.209659,47.0681978 L199.368985,46.3569775 L200.387787,46.9770157 L199.19333,47.6699997 L196.558497,48.9647854 L196.049097,48.6547663 L198.209659,47.0681978 Z M200.317525,48.3447472 L201.476851,47.6335268 L202.495653,48.2353287 L201.318761,48.946549 L198.683929,50.2230983 L198.174528,49.9313156 L200.317525,48.3447472 Z" id="Shape" fill-rule="nonzero"></path>
                        <path d="M199.597337,52.1743952 C201.117765,51.218088 203.000133,51.1220893 204.603519,51.9190853 C205.885804,52.6850149 205.675018,53.7427272 204.217077,54.5998389 C204.029388,54.7085244 203.835849,54.8059453 203.637414,54.8916217 L199.860821,52.6303057 L200.545877,52.210868 L203.883332,54.2168741 L203.444193,54.2168741 C204.656216,53.469181 204.744043,52.7944334 203.918463,52.3932322 C202.774651,51.8834097 201.46312,51.9855313 200.405353,52.6667785 C199.070371,53.4874174 199.140633,54.3445291 200.14187,54.9463309 C200.712529,55.2565745 201.34257,55.431002 201.986252,55.4569506 L201.687638,55.9675704 C200.872131,55.9280354 200.074794,55.7039723 199.35142,55.3110593 C197.946176,54.4357112 197.875914,53.1956347 199.597337,52.1743952 Z" id="Path"></path>
                        <path d="M207.940973,54.0709828 L208.573333,54.4539476 L207.765318,55.0192766 C208.67966,54.8924674 209.609964,55.0313455 210.452847,55.4204778 C211.524346,56.0587525 211.278428,56.7882092 209.908315,57.6088481 L206.693819,59.5419085 L205.938501,59.0859981 L209.030037,57.2623561 C210.013708,56.6605543 210.171798,56.2228802 209.451611,55.7852062 C208.715585,55.4587254 207.905001,55.3574873 207.115393,55.4934235 L203.496889,57.6635574 L202.741571,57.2076469 L207.940973,54.0709828 Z" id="Path"></path>
                        <path d="M214.809103,57.0252827 L215.968429,56.3140623 L216.969666,56.9158642 L215.792774,57.6270845 L213.157942,58.9036339 L212.648541,58.5936147 L214.809103,57.0252827 Z M216.916969,58.2835956 L218.076295,57.5906117 L219.095097,58.1924135 L217.918205,58.8853974 L215.283373,60.1801832 L214.756407,59.8701641 L216.916969,58.2835956 Z" id="Shape" fill-rule="nonzero"></path>
                        <polygon id="Path" points="215.33607 63.0797739 220.254424 63.4445022 220.254424 63.4445022 219.639629 60.5084388 220.500341 59.997819 221.238094 63.6451028 220.570603 64.0463041 214.440227 63.60863"></polygon>
                        <polygon id="Path" points="103.197603 24.3091467 103.882659 23.8897091 109.99547 24.3456196 109.152324 24.8562393 104.23397 24.4915109 104.23397 24.4915109 104.848764 27.4458108 104.005618 27.9564306"></polygon>
                        <path d="M112.87622,24.8380029 L113.631539,25.2939134 L111.57637,26.5339899 L110.294084,27.2452102 C111.201059,27.1132322 112.125517,27.2458313 112.964048,27.628175 C114.035547,28.2664497 113.789629,28.9959065 112.437082,29.8165453 L109.20502,31.7496057 L108.449702,31.2754588 L111.541238,29.4518169 C112.524909,28.8682515 112.682999,28.4305775 111.962812,27.9929034 C111.229494,27.6560605 110.415939,27.5544513 109.626594,27.7011207 L106.00809,29.8712546 L105.252772,29.3971077 L112.87622,24.8380029 Z" id="Path"></path>
                        <path d="M113.1924,31.0019126 C114.714794,30.0742591 116.578122,29.9788967 118.181016,30.7466027 C119.463301,31.5307687 119.252515,32.5702446 117.794574,33.4273563 C117.608656,33.5447949 117.414949,33.6483946 117.214911,33.7373754 L113.438318,31.457823 L114.176071,31.0019126 L117.513525,32.9896822 L117.074387,32.9896822 C118.286409,32.2602255 118.374237,31.585478 117.548656,31.1660403 C116.4075,30.6400076 115.08836,30.7427217 114.035547,31.4395866 C112.682999,32.2419891 112.753261,33.0991008 113.754498,33.7009026 C114.330114,34.0172512 114.965879,34.1978299 115.616446,34.2297588 L115.317832,34.7403785 C114.495091,34.6972482 113.691538,34.4668976 112.964048,34.065631 C111.523673,33.281465 111.453411,32.0413885 113.1924,31.0019126 Z" id="Path"></path>
                        <path d="M117.566222,35.1415797 C118.725548,34.4485958 120.236185,34.6674328 122.835887,35.9257457 C123.503378,35.4880717 123.819558,34.9592155 122.94128,34.4303594 C122.25721,34.097666 121.517545,33.9056872 120.763152,33.8650304 L121.061766,33.3361742 C122.013778,33.3950522 122.945118,33.6491762 123.801992,34.0838674 C125.03158,34.8133242 124.785663,35.6704359 123.485812,36.4546019 L120.324013,38.2782438 L119.691653,37.895279 L120.324013,37.4393685 C119.4348,37.4588925 118.552613,37.2719783 117.741877,36.8922759 C116.793338,36.4728383 116.652813,35.6886723 117.566222,35.1415797 Z M120.833414,37.0928766 L122.168396,36.2722377 C120.095661,35.2327618 119.076859,35.1415797 118.391803,35.5610173 C117.706746,35.980455 118.040492,36.326947 118.549893,36.6369661 C119.267029,36.9696854 120.048563,37.1257206 120.833414,37.0928766 Z" id="Shape" fill-rule="nonzero"></path>
                        <path d="M124.153303,37.6034963 C125.584366,36.6820923 127.353403,36.5262185 128.913567,37.1840587 C129.358749,37.4006557 129.630624,37.878324 129.598623,38.3876623 L130.512032,37.7858605 L132.496939,36.6004932 L133.269823,37.0564037 L125.681506,41.5972721 L125.049146,41.2325437 L125.66394,40.7766332 C124.88388,40.8496959 124.098645,40.7180056 123.380419,40.3936684 C122.221093,39.7006845 122.431879,38.6429722 124.153303,37.6034963 Z M126.313866,40.3389592 L128.896001,38.7888635 C128.942533,38.3434424 128.708929,37.9171847 128.316338,37.7311512 C127.20692,37.2696282 125.951213,37.3918468 124.943753,38.0594068 C123.714164,38.8071 123.468247,39.5547931 124.293827,40.0471765 C124.929623,40.3313529 125.627497,40.4321567 126.313866,40.3389592 Z" id="Shape" fill-rule="nonzero"></path>
                        <polygon id="Path" points="128.913567 41.9437641 133.831921 42.3084924 133.831921 42.3084924 133.217126 39.3541925 134.077838 38.8435728 134.833157 42.4908566 134.148101 42.8920578 128.017724 42.4361474"></polygon>
                        <path d="M88.9168109,33.9562125 C89.4181457,33.6419624 90.0373565,33.6077678 90.5679725,33.8650304 C90.9719802,34.1021038 90.9368491,34.5397779 90.4098826,34.849797 C89.8937972,35.1350963 89.2748063,35.1350963 88.758721,34.849797 C88.3371478,34.6491964 88.3722789,34.284468 88.9168109,33.9562125 Z" id="Path"></path>
                        <path d="M94.449959,37.2752407 C94.9660443,36.9899415 95.5850352,36.9899415 96.1011206,37.2752407 C96.5051282,37.5123142 96.4699971,37.9317518 95.9430307,38.2600074 C95.4269453,38.5453066 94.8079544,38.5453066 94.291869,38.2600074 C93.8702958,38.0229339 93.9054269,37.6034963 94.449959,37.2752407 Z" id="Path"></path>
                        <path d="M99.983107,40.594269 C100.484442,40.280019 101.103653,40.2458243 101.634269,40.5030869 C102.038276,40.7401604 102.003145,41.159598 101.476179,41.4878536 C100.960093,41.7731528 100.341102,41.7731528 99.8250171,41.4878536 C99.4034439,41.3237258 99.438575,40.9225246 99.983107,40.594269 Z" id="Path"></path>
                        <polygon id="Path" points="77.6397282 39.6095024 78.3247846 39.2083012 84.4375958 39.6642117 83.5944494 40.1748314 78.6760956 39.810103 78.6760956 39.810103 79.2733243 42.7644029 78.4301779 43.2750227"></polygon>
                        <polygon id="Path" points="90.3747515 41.9437641 91.0598079 42.3449653 78.7639234 46.1016676 78.0788669 45.68223"></polygon>
                        <path d="M92.851494,43.4756233 L93.6068126,43.9315337 L91.5516433,45.1716102 L90.2693582,45.8828306 C91.1762272,45.7321139 92.1057863,45.8654447 92.9393217,46.2657954 C94.0108202,46.9040701 93.7649025,47.6335268 92.3947897,48.4541657 L89.1802941,50.2778076 L88.4249755,49.8218971 L91.5165122,47.9982552 C92.500183,47.4146898 92.6582729,46.9587793 91.9380854,46.5211053 C91.1881451,46.221778 90.3712211,46.1521559 89.5843018,46.3205046 L86.0711919,48.4724021 L85.3158733,48.0164916 L92.851494,43.4756233 Z" id="Path"></path>
                        <path d="M93.0974117,49.6395329 C94.6198059,48.7118794 96.4831339,48.6165171 98.0860277,49.3842231 C99.3683128,50.1683891 99.1575262,51.207865 97.6995856,52.0649767 C97.5214767,52.1803761 97.3332767,52.27807 97.137488,52.3567594 L93.3433293,50.0954434 L94.0283858,49.6942422 L97.3658402,51.6820119 L96.9267014,51.6820119 C98.1562899,50.9525551 98.2265521,50.2778076 97.4185368,49.85837 C96.2779419,49.3289826 94.9572029,49.4318212 93.9054269,50.1319163 C92.5528796,50.9343187 92.6231418,51.7914304 93.6243781,52.3932322 C94.2039036,52.6992054 94.8374824,52.8791632 95.4863264,52.9220884 L95.187712,53.4327081 C94.3649715,53.3895779 93.5614184,53.1592273 92.8339284,52.7579606 C91.4989467,51.9190853 91.4286845,50.6790088 93.0974117,49.6395329 Z" id="Path"></path>
                        <path d="M97.5590612,53.7792001 C98.7183875,53.0862162 100.211459,53.3050532 102.740898,54.5633661 C103.408389,54.125692 103.724569,53.5968359 102.846292,53.0679797 C102.161488,52.7374335 101.42223,52.5455604 100.668163,52.5026507 L100.966778,51.9555582 C101.919847,52.0210959 102.851069,52.2813848 103.707003,52.7214878 C104.936592,53.4509445 104.690674,54.3080562 103.390824,55.0922223 L100.229025,56.9158642 L99.5966649,56.5328994 L100.229025,56.0769889 C99.3376571,56.0998226 98.4534688,55.9062398 97.6468889,55.5116599 C96.7686115,55.0739858 96.6105215,54.3262927 97.5590612,53.7792001 Z M100.808688,55.7122605 L102.161235,54.9098581 C100.070935,53.8703822 99.0521329,53.7792001 98.3670765,54.1804013 C97.68202,54.5816025 97.9981999,54.9645673 98.5251664,55.2745865 C99.2441033,55.5997949 100.025295,55.749523 100.808688,55.7122605 Z" id="Shape" fill-rule="nonzero"></path>
                        <path d="M104.128577,56.2411167 C105.564139,55.3136053 107.341211,55.1575991 108.906406,55.821679 C109.351589,56.0382761 109.623464,56.5159444 109.591463,57.0252827 L110.504871,56.4234809 L112.419516,55.25635 L113.1924,55.7122605 L105.674345,60.1801832 L105.041985,59.8154548 L105.674345,59.3595443 C104.894285,59.432607 104.10905,59.3009167 103.390824,58.9765795 C102.196366,58.3565413 102.407153,57.2805926 104.128577,56.2411167 Z M106.289139,58.9583431 L108.906406,57.4264839 C108.958712,56.9798389 108.723297,56.5502769 108.326743,56.3687716 C107.223231,55.9073726 105.972778,56.0297171 104.971723,56.6970271 C103.724569,57.4447203 103.496217,58.1924135 104.304232,58.6847968 C104.929405,58.9624048 105.615857,59.0570069 106.289139,58.9583431 Z" id="Shape" fill-rule="nonzero"></path>
                        <polygon id="Path" points="108.906406 60.5449116 113.82476 60.90964 113.82476 60.90964 113.209966 57.9553401 114.070678 57.4447203 114.825996 61.0920042 114.14094 61.5114418 108.010563 61.0555313"></polygon>
                        <polygon id="Path" points="64.8520083 47.2870349 65.5370647 46.8675972 71.6674414 47.4146898 70.8067295 47.9253095 65.8883757 47.5605812 65.8883757 47.5605812 66.5031699 50.5148811 65.642458 51.0255008"></polygon>
                        <path d="M68.2421593,52.4479415 L67.592234,52.7397242 L66.9774397,52.3749958 L74.5657571,47.8341274 L75.3386412,48.2900379 L73.2659064,49.5301144 L72.229539,50.1136798 C73.0130538,50.0412145 73.8010563,50.1859549 74.5130604,50.5331175 C75.7250833,51.2625742 75.3386412,52.3567594 73.7401763,53.2321075 C72.3044566,54.1899447 70.5108407,54.366642 68.9272157,53.7062544 C68.4835146,53.4598373 68.2166637,52.9696852 68.2421593,52.4479415 Z M72.9497265,52.7579606 C74.0914872,52.0832131 74.4779293,51.4084656 73.5820863,50.9343187 C72.9324901,50.6322794 72.2161434,50.5188328 71.5093515,50.6060632 L68.9272157,52.1561588 C68.9183272,52.6070216 69.1566263,53.0240678 69.54201,53.2321075 C70.6837512,53.6669123 71.9585539,53.4895373 72.9497265,52.7579606 Z" id="Shape" fill-rule="nonzero"></path>
                        <path d="M74.7589781,53.9433279 C76.2525426,52.9952062 78.10213,52.8790359 79.6948975,53.6333087 C80.8717893,54.3445291 80.9069204,55.5663692 79.1854966,56.6058451 C77.6934448,57.5416839 75.8521654,57.6509183 74.2671427,56.8976278 C73.0902509,56.1864074 73.0375543,54.9828037 74.7589781,53.9433279 Z M78.3950468,56.1316982 C79.5895042,55.4204778 79.8178563,54.5998389 78.9571444,54.0892192 C77.8142279,53.53614 76.4734632,53.6614175 75.4440345,54.4174748 C74.2671427,55.1286951 74.0563561,55.949334 74.9170681,56.4599537 C76.0503851,56.9988925 77.3739192,56.8739759 78.3950468,56.1316982 Z" id="Shape" fill-rule="nonzero"></path>
                        <path d="M80.2921262,57.2623561 C81.7231894,56.3409521 83.4922257,56.1850783 85.05239,56.8429185 C85.4941598,57.0633948 85.7645282,57.5384161 85.7374465,58.0465222 L86.6332895,57.4447203 L88.6357621,56.2593531 L89.3910807,56.7152636 L81.8378945,61.2743684 L81.2055347,60.90964 L81.820329,60.4537295 C81.0457391,60.5343214 80.2643469,60.4022598 79.5543731,60.0707647 C78.3599157,59.3595443 78.5707023,58.3565413 80.2921262,57.2623561 Z M82.4526887,59.997819 L85.0348245,58.4477234 C85.0706572,58.0046776 84.8403192,57.5843795 84.4551614,57.3900111 C83.3442376,56.9244799 82.0840664,57.0539471 81.0825759,57.736503 C79.8529874,58.4659598 79.6070697,59.213653 80.4326506,59.7060363 C81.0656687,60.0003929 81.7663157,60.1015972 82.4526887,59.997819 Z" id="Shape" fill-rule="nonzero"></path>
                        <path d="M81.1879692,63.4445022 L82.0486811,63.1162467 C82.1446184,63.2309543 82.2572239,63.3294016 82.3824265,63.4080294 C83.1256799,63.7222516 83.9578257,63.7222516 84.7010791,63.4080294 L85.21048,63.2439016 L88.3195822,58.8853974 L89.0924664,59.3595443 L87.3359115,61.7120424 L86.3873718,62.9521189 L88.3722789,62.3503171 L92.2015686,61.2196591 L92.9393217,61.6573332 L85.3685699,63.9186491 C84.1826614,64.432309 82.8481476,64.432309 81.662239,63.9186491 C81.4744833,63.7960642 81.3130431,63.6346659 81.1879692,63.4445022 Z" id="Path"></path>
                        <polygon id="Path" points="90.5679725 64.8851793 95.4863264 65.2499077 95.4863264 65.2499077 94.8539666 62.2773714 95.697113 61.7667517 96.4524316 65.4140355 95.7673752 65.8334731 89.654564 65.3775627"></polygon>
                        <polygon id="Path" points="52.0818539 54.9280945 52.6966481 54.5268933 58.8094593 54.9828037 57.9663129 55.4934235 53.0479591 55.1286951 53.0479591 55.1286951 53.6451878 58.082995 52.8020414 58.5936147"></polygon>
                        <path d="M56.4381101,58.3565413 C57.8720631,57.4411312 59.6409751,57.292045 61.198374,57.9553401 C61.6479786,58.1570198 61.9236028,58.633938 61.8834304,59.1407073 L62.796839,58.5571419 L64.7817461,57.3535382 L65.5546302,57.8094487 L57.9663129,62.3138442 L57.3515187,62.0038251 L57.9838785,61.5661511 C57.207677,61.6427842 56.4257835,61.5043453 55.7179226,61.1649498 C54.453203,60.3807838 54.7166863,59.3230715 56.4381101,58.3565413 Z M58.6162382,61.0920042 L61.1808085,59.5419085 C61.2248722,59.1020061 61.0006517,58.680085 60.6187109,58.4841962 C59.5065041,58.0280732 58.2506501,58.1570968 57.2461254,58.8306882 C55.9989714,59.560145 55.7706192,60.3078381 56.5786345,60.8002215 C57.2218151,61.0816945 57.9311785,61.1578796 58.6162382,61.0190585 L58.6162382,61.0920042 Z" id="Shape" fill-rule="nonzero"></path>
                        <path d="M66.2221211,61.8944066 L64.1318207,60.6360937 L64.8520083,60.216656 L67.6976273,61.912643 L62.4279625,65.0310707 L61.6550783,64.5569238 L66.2221211,61.8944066 Z M68.4002492,60.1801832 C68.7996984,59.9531145 69.2830852,59.9531145 69.6825343,60.1801832 C70.0338453,60.3807838 70.0162798,60.7090394 69.6825343,60.9461128 C69.2768259,61.1730746 68.7883921,61.1730746 68.3826837,60.9461128 C67.9611105,60.781985 67.9786761,60.4719659 68.4002492,60.1801832 Z" id="Shape" fill-rule="nonzero"></path>
                        <path d="M70.0162798,63.3168473 L70.8067295,63.7727578 L68.9096502,66.1617287 L67.8732828,67.3835688 C68.5232081,67.1647317 69.190699,66.9458947 69.8933209,66.7452941 L73.8982662,65.651109 L74.6360193,66.088783 L67.6097995,68.0765527 L66.7490876,67.4747509 L70.0162798,63.3168473 Z" id="Path"></path>
                        <path d="M82.8039997,71.833255 L80.8015271,70.5931785 L81.5217146,70.1737409 L84.3673336,71.8697279 L79.0449722,74.9699191 L78.272088,74.5140087 L82.8039997,71.833255 Z M84.9821278,70.1737409 C85.3878363,69.9467791 85.8762701,69.9467791 86.2819785,70.1737409 C86.6332895,70.3925779 86.6157239,70.7025971 86.2819785,70.9579069 C85.8762701,71.1848687 85.3878363,71.1848687 84.9821278,70.9579069 C84.5605547,70.7390699 84.5781202,70.4108144 84.9821278,70.1737409 Z" id="Shape" fill-rule="nonzero"></path>
                        <path d="M84.1038504,74.878737 C85.5291919,73.9395566 87.3067042,73.782936 88.8641143,74.4592994 C89.3128325,74.6718366 89.5863027,75.1523077 89.5491707,75.6629031 L90.4625793,75.0793377 L92.4474863,73.8939704 L93.2203705,74.3498809 L85.6320532,78.8907493 L84.9996934,78.5077845 L85.6320532,78.0701104 C84.8557894,78.1485143 84.0734517,78.0099967 83.3660973,77.6689092 C82.17164,76.9576888 82.3824265,75.8999765 84.1038504,74.878737 Z M86.264413,77.5959635 L88.8465487,76.0641043 C88.8954329,75.6135382 88.6622667,75.1807439 88.2668856,74.9881556 C87.1605714,74.5321494 85.9099692,74.6613062 84.9118657,75.3346475 C83.6647116,76.0823407 83.4363595,76.8117975 84.2443748,77.3041808 C84.8751149,77.6066827 85.5780897,77.7082233 86.264413,77.5959635 Z" id="Shape" fill-rule="nonzero"></path>
                        <path d="M90.005875,78.2524746 L93.9581236,80.6232091 L93.3081983,81.0244103 L89.3383841,78.6536758 L90.005875,78.2524746 Z M92.2893964,76.8847431 L96.241645,79.2554776 L95.5917197,79.6566789 L91.6219055,77.2859444 L92.2893964,76.8847431 Z" id="Shape" fill-rule="nonzero"></path>
                        <path d="M97.2077502,80.750864 C98.1751101,80.9004516 99.1629846,80.7145609 100.018238,80.2220079 L100.668163,79.620206 L100.457377,80.3496628 C100.15161,80.3832713 99.8427024,80.3329645 99.5615338,80.2037714 C99.1750917,79.9849344 99.2102228,79.620206 99.6669271,79.3648962 C100.139483,79.1055171 100.705008,79.1055171 101.177564,79.3648962 C101.6694,79.6566789 101.528875,80.1490622 100.703295,80.6414455 C99.5606188,81.2845143 98.2446022,81.5154346 96.9618325,81.2979566 L97.2077502,80.750864 Z M99.3331817,82.0274134 C100.300379,82.1676247 101.285399,81.9822712 102.14367,81.4985572 L102.793595,80.8967554 L102.582808,81.6262121 C102.271254,81.6630964 101.955868,81.6127224 101.6694,81.4803208 C101.282958,81.2432473 101.335654,80.8967554 101.792359,80.6232091 C102.264138,80.3605986 102.831217,80.3605986 103.302996,80.6232091 C103.794831,80.9332282 103.654307,81.4073751 102.828726,81.8997584 C101.687668,82.5477644 100.371972,82.7850414 99.087264,82.5745059 L99.3331817,82.0274134 Z" id="Shape" fill-rule="nonzero"></path>
                        <path d="M99.6669271,85.71117 C100.826253,85.0181861 102.319325,85.2370231 104.936592,86.495336 C105.621648,86.057662 105.920263,85.5288058 105.041985,85.0181861 C104.361916,84.671365 103.620654,84.4727656 102.863857,84.4346207 L103.162471,83.9057645 C104.114483,83.9646425 105.045824,84.2187665 105.902697,84.6534577 C107.132286,85.3829145 106.886368,86.2582626 105.604083,87.0241922 L102.424718,88.8478341 L101.792359,88.4648693 L102.424718,88.0089588 C101.535505,88.0284829 100.653318,87.8415686 99.8425826,87.4618663 C98.8764774,86.9694829 98.735953,86.2400262 99.6669271,85.71117 Z M102.916554,87.6624669 L104.269101,86.8600644 C102.178801,85.8023521 101.159999,85.71117 100.474942,86.1306077 C99.789886,86.5500453 100.123631,86.8965373 100.633032,87.2065564 C101.350521,87.5353942 102.133944,87.6792934 102.916554,87.625994 L102.916554,87.6624669 Z" id="Shape" fill-rule="nonzero"></path>
                        <path d="M109.152324,86.7688823 L109.767118,87.1518471 L109.169889,87.5712848 C109.972959,87.5203871 110.775652,87.6770319 111.506107,88.0271953 C112.71813,88.756652 112.331688,89.8508372 110.715658,90.7261853 C109.28145,91.6718436 107.496054,91.8415857 105.920263,91.1820958 C105.506227,90.9339243 105.251627,90.4748365 105.252772,89.9784921 L104.321798,90.5985304 L102.565243,91.6380062 L101.880186,91.1820958 L109.152324,86.7688823 Z M109.960339,90.2702748 C111.1021,89.5955273 111.488542,88.9207798 110.610264,88.4466329 C109.95206,88.1535896 109.230874,88.0466282 108.519964,88.1366138 L105.955394,89.668473 C105.939645,90.1114325 106.163262,90.5265025 106.535057,90.7444217 C107.681202,91.1923455 108.967277,91.0143198 109.960339,90.2702748 Z" id="Shape" fill-rule="nonzero"></path>
                        <path d="M114.685472,90.0879106 L115.300266,90.452639 L114.703037,90.8903131 C115.506107,90.8394154 116.3088,90.9960602 117.039255,91.3462235 C118.251278,92.0756803 117.864836,93.1698655 116.248806,94.0452136 C114.805698,95.0032181 113.004129,95.1732522 111.41828,94.5011241 C111.004244,94.2529525 110.749644,93.7938648 110.750789,93.2975204 L109.819815,93.8993222 L108.06326,94.9570345 L107.307941,94.5011241 L114.685472,90.0879106 Z M115.493487,93.5893031 C116.635248,92.9145556 117.02169,92.2398081 116.143412,91.7656612 C115.485024,91.4729158 114.765442,91.3599144 114.053112,91.4374056 L111.488542,93.0057377 C111.472793,93.4486972 111.69641,93.8637672 112.068205,94.0816864 C113.217243,94.5243948 114.503543,94.3394896 115.493487,93.5893031 Z" id="Shape" fill-rule="nonzero"></path>
                        <path d="M119.340342,94.0087407 C120.305674,94.1558129 121.290976,93.9767996 122.15083,93.498121 L122.800756,92.8780827 L122.589969,93.6075395 C122.285762,93.6575328 121.974109,93.6131232 121.694126,93.4798846 C121.290118,93.2428111 121.360381,92.8963192 121.799519,92.6227729 C122.256442,92.3311898 122.823765,92.2969462 123.310157,92.5315908 C123.801992,92.8233735 123.661468,93.3157568 122.835887,93.8081401 C121.695273,94.4574652 120.379143,94.6948205 119.094425,94.4828876 L119.340342,94.0087407 Z M121.465774,95.2852901 C122.433134,95.4348776 123.421008,95.248987 124.276262,94.7564339 L124.926187,94.1546321 L124.715401,94.8293796 C124.405524,94.8604701 124.092919,94.8167815 123.801992,94.7017247 C123.41555,94.4646512 123.468247,94.0999228 123.924951,93.844613 C124.39673,93.5820025 124.963809,93.5820025 125.435588,93.844613 C125.927423,94.1363957 125.786899,94.628779 124.961318,95.1211623 C123.820885,95.7709548 122.502636,96.0022669 121.219856,95.7776734 L121.465774,95.2852901 Z" id="Shape" fill-rule="nonzero"></path>
                        <polygon id="Path" points="122.063003 99.0784653 126.981356 99.4431936 126.981356 99.4431936 126.471955 96.4706573 127.332667 95.9600376 128.087986 99.6073214 127.40293 100.026759 121.272553 99.5708486"></polygon>
                        <path d="M37.8010622,64.5933966 C38.3171476,64.3080974 38.9361385,64.3080974 39.4522239,64.5933966 C39.8562315,64.8304701 39.8211004,65.2681441 39.2941339,65.5781633 C38.7780486,65.8634625 38.1590577,65.8634625 37.6429723,65.5781633 C37.2213991,65.3410898 37.2565302,64.9216522 37.8010622,64.5933966 Z" id="Path"></path>
                        <path d="M43.3342103,67.9124249 C43.8502957,67.6271257 44.4692866,67.6271257 44.9853719,67.9124249 C45.3893796,68.1494984 45.3542485,68.568936 44.827282,68.8971916 C44.3111966,69.1824908 43.6922057,69.1824908 43.1761204,68.8971916 C42.7545472,68.6601181 42.7896783,68.2406805 43.3342103,67.9124249 Z" id="Path"></path>
                        <path d="M48.8673583,71.2314532 C49.3834437,70.946154 50.0024346,70.946154 50.51852,71.2314532 C50.9225276,71.4685267 50.8873965,71.8879643 50.36043,72.2162198 C49.8443447,72.5015191 49.2253538,72.5015191 48.7092684,72.2162198 C48.2876952,71.96091 48.3228263,71.5597088 48.8673583,71.2314532 Z" id="Path"></path>
                        <polygon id="Path" points="26.5239795 70.264923 27.209036 69.8454854 33.3218472 70.3013958 32.4787008 70.8120156 27.560347 70.4472872 27.560347 70.4472872 28.104879 73.4198235 27.2617326 73.9304432"></polygon>
                        <polygon id="Path" points="39.2590028 72.6538939 39.9440593 73.0550951 27.6481747 76.8117975 26.9631183 76.3923598"></polygon>
                        <path d="M36.4133838,76.921216 C37.8588416,76.0296687 39.6273114,75.9077196 41.1736477,76.5929604 C41.6223659,76.8054977 41.8958362,77.2859688 41.8587041,77.7965641 L42.7721127,77.1947623 L44.7570198,76.009395 L45.529904,76.4653055 L37.9415866,81.0061739 L37.3092269,80.6414455 L37.9415866,80.185535 C37.1669462,80.2678636 36.3851219,80.1357289 35.6756308,79.8025702 C34.4811734,79.0184042 34.69196,77.9606919 36.4133838,76.921216 Z M38.6442086,79.6566789 L41.2263444,78.1065832 C41.2757898,77.6655644 41.0499671,77.2406286 40.6642468,77.0488709 C39.55204,76.5927479 38.2961861,76.7217715 37.2916613,77.3953629 C36.0445073,78.1248197 35.8161552,78.8725128 36.641736,79.3648962 C37.2689563,79.6577424 37.9635725,79.7589558 38.6442086,79.6566789 Z" id="Shape" fill-rule="nonzero"></path>
                        <path d="M46.1973948,80.532027 L44.12466,79.2737141 L44.827282,78.8542764 L47.672901,80.5502634 L42.4032362,83.6504547 L41.630352,83.1945442 L46.1973948,80.532027 Z M48.375523,78.8542764 C48.7773235,78.6369584 49.2560076,78.6369584 49.6578081,78.8542764 C50.0091191,79.0731134 49.9915535,79.401369 49.6578081,79.6384424 C49.2610677,79.8762489 48.7722634,79.8762489 48.375523,79.6384424 C47.9363842,79.4196054 47.9539498,79.1095863 48.375523,78.8542764 Z" id="Shape" fill-rule="nonzero"></path>
                        <path d="M49.9915535,81.9544677 L50.7820032,82.4103782 L48.8849239,84.7993491 L47.8485565,86.0029527 C48.4984818,85.7841157 49.1659727,85.5652787 49.8685947,85.3646781 L53.8384088,84.2340201 L54.5761619,84.6716941 L47.5499421,86.6594638 L46.6892302,86.1488441 L49.9915535,81.9544677 Z" id="Path"></path>
                        <polygon id="Path" points="52.2399438 87.8630675 57.1582976 88.2277959 57.1582976 88.2277959 56.5435034 85.273496 57.4042153 84.7628762 58.159534 88.4101601 57.4744775 88.8295977 51.3441008 88.3736872"></polygon>
                        <polygon id="Path" points="13.7538252 77.9059826 14.421316 77.5047814 20.5516928 77.9606919 19.6909808 78.4713116 14.7901926 78.1065832 14.7901926 78.1065832 15.4049868 81.0608831 14.5442749 81.5715029"></polygon>
                        <polygon id="Path" points="26.4712829 80.2402443 27.1563393 80.6414455 14.8604548 84.3981478 14.1929639 83.9787102"></polygon>
                        <path d="M22.6595587,86.4041539 L22.0096334,86.6959367 L21.4124047,86.3312083 L28.9831565,81.7903399 L29.7560406,82.2462504 L27.6833058,83.4863269 L26.6469384,84.0698923 C27.4304532,83.9974269 28.2184557,84.1421674 28.9304598,84.4893299 C30.1424827,85.2187867 29.7560406,86.3129719 28.1575756,87.18832 C26.7189131,88.1401372 24.9254405,88.3100249 23.3446151,87.6442305 C22.903724,87.4040151 22.636637,86.9205391 22.6595587,86.4041539 Z M27.3671259,86.7141731 C28.5088866,86.0394256 28.8953287,85.3646781 27.9994857,84.8905312 C27.3482339,84.5947021 26.631952,84.4875677 25.9267509,84.580512 L23.3446151,86.1123712 C23.3448786,86.5654061 23.5796946,86.9833218 23.9594093,87.2065564 C25.1039986,87.6361255 26.3790185,87.451897 27.3671259,86.7141731 Z" id="Shape" fill-rule="nonzero"></path>
                        <path d="M29.1763775,87.8995403 C30.6609804,86.9336515 32.510892,86.7969565 34.1122969,87.5348119 C35.2891887,88.2460323 35.3418853,89.4678724 33.6028959,90.5073483 C32.1108442,91.4431871 30.2695648,91.5524215 28.6845421,90.799131 C27.5076503,90.1426199 27.4549537,88.9390162 29.1763775,87.8995403 Z M32.8124462,90.0879106 C34.0069036,89.3766903 34.2352557,88.5560514 33.3745438,88.0454317 C32.2606231,87.5342097 30.9711364,87.6584223 29.9668272,88.3736872 C28.7723699,89.0849076 28.5615833,89.9055464 29.4222952,90.4161662 C30.5313266,90.920575 31.8123856,90.7965349 32.8124462,90.0879106 Z" id="Shape" fill-rule="nonzero"></path>
                        <path d="M34.7095256,91.1820958 C36.1405888,90.2606917 37.9096251,90.1048179 39.4697894,90.7626581 C39.914972,90.9792552 40.1868469,91.4569234 40.1548459,91.9662618 L41.0682544,91.36446 L43.0531615,90.1790927 L43.8260457,90.6350032 L36.2377283,95.1758716 L35.6053686,94.8111432 L36.2201628,94.3552327 C35.439821,94.437345 34.6523905,94.3052866 33.9366414,93.9722679 C32.7773151,93.3157568 32.9881017,92.2580445 34.7095256,91.1820958 Z M36.8876537,93.9540315 L39.4697894,92.4039358 C39.5108377,91.9597145 39.2789221,91.5365378 38.8901263,91.3462235 C37.7792025,90.8806924 36.5190313,91.0101596 35.5175408,91.6927155 C34.2879524,92.4221723 34.0420347,93.1698655 34.8676155,93.6622488 C35.5029337,93.9481957 36.2012791,94.0490676 36.8876537,93.9540315 Z" id="Shape" fill-rule="nonzero"></path>
                        <path d="M35.6053686,97.4007147 L36.4660805,97.0724592 C36.5582722,97.1862353 36.6718315,97.2793115 36.7998259,97.3460054 C37.53156,97.689698 38.3637976,97.7224261 39.1184784,97.4371875 L39.6278794,97.2730598 L42.7369816,93.0057377 L43.5098658,93.4798846 L41.7533109,95.8323827 L40.8047712,97.0724592 L42.7896783,96.4524209 L46.6014025,95.3217629 L47.3391556,95.7776734 L39.7508382,97.9478073 C38.5712237,98.4625133 37.2416874,98.4625133 36.0620729,97.9478073 C35.8761509,97.7989627 35.7208565,97.6129334 35.6053686,97.4007147 Z" id="Path"></path>
                        <polygon id="Path" points="44.9853719 98.8413918 49.9037258 99.2061202 49.9037258 99.2061202 49.2889315 96.2518203 50.1320779 95.7412006 50.8873965 99.3884844 50.2023401 99.807922 44.0895289 99.3520115"></polygon>
                        <polygon id="Path" points="0.966105215 85.5835151 1.65116164 85.1640774 7.76397282 85.6199879 6.92082645 86.1306077 2.00247263 85.7658793 2.00247263 85.7658793 2.59970131 88.7201792 1.75655494 89.2307989"></polygon>
                        <polygon id="Path" points="13.7011285 87.972486 14.3861849 88.3736872 2.09030037 92.1303896 1.40524395 91.7109519"></polygon>
                        <path d="M16.177871,89.3584539 L16.9331896,89.8143643 L14.8780203,91.1820958 L13.5957352,91.8933161 C14.5083666,91.7444288 15.4430225,91.8776145 16.2832643,92.2762809 C17.3371972,92.9145556 17.0912795,93.6440124 15.7387322,94.4646512 L12.5066712,96.2882931 L11.7513525,95.8323827 L14.8428892,94.0087407 C15.82656,93.4251753 16.0022155,92.9692648 15.2644624,92.5315908 C14.5269601,92.2102743 13.7161549,92.1153376 12.9282443,92.2580445 L9.32730672,94.409942 L8.55442254,93.9540315 L16.177871,89.3584539 Z" id="Path"></path>
                        <path d="M17.1791073,96.6530215 L19.6207186,95.194108 L18.3559991,94.4281784 L19.02349,94.0269772 L20.3760373,94.7746703 L22.1325922,93.844613 L22.764952,94.2275778 L21.1137903,95.2123444 L23.309484,96.5253666 L22.5892965,96.9630406 L20.3936028,95.6500185 L17.9344259,97.1271684 C17.0034518,97.674261 16.7926652,98.1301715 17.6533771,98.6407912 C18.0593614,98.8740968 18.4979175,99.0402219 18.9532278,99.1331745 L18.4789579,99.6255578 C17.8614023,99.5133347 17.2671522,99.2912341 16.722403,98.9690467 C15.4576834,98.23959 15.8968222,97.4736604 17.1791073,96.6530215 Z" id="Path"></path>
                        <path d="M24.5917691,97.3095326 L25.1889978,97.674261 L24.5742036,98.1301715 C25.1557193,97.9545604 25.7784794,97.9998185 26.3307585,98.2578264 C26.7698972,98.5313727 26.7523317,98.8778646 26.3307585,99.3155387 C26.9624158,99.0886749 27.6537407,99.1212989 28.2629689,99.4067208 C28.8953287,99.7714492 28.7021077,100.336778 27.6657403,100.956816 L23.9594093,103.18166 L23.2040907,102.725749 L26.8401594,100.537379 C27.4373881,100.190887 27.6130436,99.9173405 27.2792982,99.7167399 C26.9455527,99.5161393 26.5239795,99.589085 25.7510954,99.7167399 L22.0096334,101.978056 L21.3070114,101.558618 L24.9430801,99.370248 C25.5403088,99.0055196 25.7159643,98.7502097 25.3997844,98.5496091 C24.8999428,98.3645612 24.3538576,98.3645612 23.854016,98.5496091 L20.112554,100.792689 L19.3572354,100.336778 L24.5917691,97.3095326 Z" id="Path"></path>
                        <path d="M28.3332311,103.728752 L33.4799371,100.646797 L31.8814721,99.6985035 L32.6016596,99.2790659 L34.9554432,100.68327 L29.0358531,104.221135 C28.2981,104.677046 28.3156656,105.078247 28.8601976,105.388266 C29.1901596,105.583285 29.5545684,105.707326 29.9316961,105.752995 L29.4574263,106.263614 C28.9325038,106.184759 28.426239,106.005437 27.9643546,105.734758 C26.9982494,105.169429 27.1036427,104.458209 28.3332311,103.728752 Z" id="Path"></path>
                        <polygon id="Path" points="32.2152175 106.500688 37.1335714 106.865416 37.1335714 106.865416 36.5539082 103.947589 37.4146202 103.436969 38.1699388 107.084253 37.4848824 107.503691 31.3545056 107.04778"></polygon>
                    </g>
                    <g id="Path">
                        <use fill="black" fill-opacity="1" filter="url(#filter-2)" xlink:href="#path-1"></use>
                        <use fill="#5FD6B3" fill-rule="evenodd" xlink:href="#path-1"></use>
                    </g>
                    <polygon id="Path" fill-opacity="0.24" fill="#000000" points="248.301546 102 176 57.3571429 184.698454 52 257 96.6428571"></polygon>
                    <polygon id="Path" fill-opacity="0.24" fill="#000000" points="233.301546 108 161 63.3571429 169.698454 58 242 102.642857"></polygon>
                    <polygon id="Path" fill-opacity="0.24" fill="#000000" points="75 113.357143 83.6984536 108 156 152.642857 147.301546 158"></polygon>
                    <polygon id="Path" fill-opacity="0.24" fill="#000000" points="64 124.357143 72.6984536 119 145 163.642857 136.301546 169"></polygon>
                    <ellipse id="Oval" fill-opacity="0.24" fill="#000000" transform="translate(247.156004, 53.947889) rotate(-6.950000) translate(-247.156004, -53.947889) " cx="247.156004" cy="53.9478886" rx="23.5390987" ry="14.070092"></ellipse>
                    <polygon id="Path" fill-opacity="0.24" fill="#000000" points="125.214286 117 102 102.148515 128.785714 85 152 99.8514851"></polygon>
                    <polygon id="Path" fill-opacity="0.24" fill="#000000" points="172.214286 149 149 134.148515 175.785714 117 199 131.851485"></polygon>
                </g>
            </g>
        </g>
    </g>
</svg>