<?xml version="1.0" encoding="UTF-8"?>
<svg width="90px" height="11px" viewBox="0 0 90 11" version="1.1" xmlns="http://www.w3.org/2000/svg" xmlns:xlink="http://www.w3.org/1999/xlink">
    <!-- Generator: Sketch 53 (72520) - https://sketchapp.com -->
    <title>ALANPEREZ</title>
    <desc>Created with Sketch.</desc>
    <g id="wireframes-v3" stroke="none" stroke-width="1" fill="none" fill-rule="evenodd">
        <g id="Desktop-Copy-28" transform="translate(-80.000000, -46.000000)" fill="#404040" fill-rule="nonzero">
            <g id="Introduction">
                <g id="header">
                    <g id="logo" transform="translate(80.000000, 40.000000)">
                        <path d="M6.846,13.08 L5.614,9.566 L4.382,13.08 L6.846,13.08 Z M7.574,15.166 L3.654,15.166 L3.024,17 L0.098,17 L4.116,6.444 L7.112,6.444 L11.13,17 L8.204,17 L7.574,15.166 Z M15.078,6.444 L15.078,14.676 L18.368,14.676 L18.368,17 L12.334,17 L12.334,6.444 L15.078,6.444 Z M25.522,13.08 L24.29,9.566 L23.058,13.08 L25.522,13.08 Z M26.25,15.166 L22.33,15.166 L21.7,17 L18.774,17 L22.792,6.444 L25.788,6.444 L29.806,17 L26.88,17 L26.25,15.166 Z M31.01,17 L31.01,6.444 L33.754,6.444 L38.822,12.898 L38.822,6.444 L41.552,6.444 L41.552,17 L38.822,17 L33.754,10.546 L33.754,17 L31.01,17 Z M48.208,11.288 L49.118,11.288 C50.126005,11.288 50.63,10.8493377 50.63,9.972 C50.63,9.09466228 50.126005,8.656 49.118,8.656 L48.208,8.656 L48.208,11.288 Z M48.208,17 L45.464,17 L45.464,6.444 L49.832,6.444 C51.0173393,6.444 51.9249968,6.75199692 52.555,7.368 C53.1850031,7.98400308 53.5,8.8519944 53.5,9.972 C53.5,11.0920056 53.1850031,11.9599969 52.555,12.576 C51.9249968,13.1920031 51.0173393,13.5 49.832,13.5 L48.208,13.5 L48.208,17 Z M60.962,8.768 L57.7,8.768 L57.7,10.532 L60.78,10.532 L60.78,12.856 L57.7,12.856 L57.7,14.676 L60.962,14.676 L60.962,17 L54.956,17 L54.956,6.444 L60.962,6.444 L60.962,8.768 Z M65.68,11.162 L66.198,11.162 C66.739336,11.162 67.1546652,11.0500011 67.444,10.826 C67.7333348,10.6019989 67.878,10.2800021 67.878,9.86 C67.878,9.4399979 67.7333348,9.11800112 67.444,8.894 C67.1546652,8.66999888 66.739336,8.558 66.198,8.558 L65.68,8.558 L65.68,11.162 Z M71.714,17 L68.298,17 L65.68,12.94 L65.68,17 L62.936,17 L62.936,6.444 L67.206,6.444 C67.7940029,6.444 68.3073311,6.53033247 68.746,6.703 C69.1846689,6.87566753 69.5463319,7.11133184 69.831,7.41 C70.1156681,7.70866816 70.3303326,8.05399804 70.475,8.446 C70.6196674,8.83800196 70.692,9.25799776 70.692,9.706 C70.692,10.5086707 70.4983353,11.1596642 70.111,11.659 C69.7236647,12.1583358 69.1520038,12.4966658 68.396,12.674 L71.714,17 Z M78.868,8.768 L75.606,8.768 L75.606,10.532 L78.686,10.532 L78.686,12.856 L75.606,12.856 L75.606,14.676 L78.868,14.676 L78.868,17 L72.862,17 L72.862,6.444 L78.868,6.444 L78.868,8.768 Z M84.552,14.676 L88.976,14.676 L88.976,17 L79.946,17 L84.944,8.768 L80.786,8.768 L80.786,6.444 L89.522,6.444 L84.552,14.676 Z" id="ALANPEREZ"></path>
                    </g>
                </g>
            </g>
        </g>
    </g>
</svg>